<svg xmlns="http://www.w3.org/2000/svg" viewBox="0 0 265.03 192.96"><defs><style>.cls-1{fill:none;stroke:#6d6c6f;stroke-linecap:round;stroke-linejoin:round;stroke-width:6px;}</style></defs><g id="Layer_2" data-name="Layer 2"><g id="Layer_1-2" data-name="Layer 1"><path class="cls-1" d="M262,98.06a28.39,28.39,0,0,0-18.37-26.57,27.21,27.21,0,0,0-25.24-37.37,26.43,26.43,0,0,0-2.68.13,26.31,26.31,0,0,0-38.36-17,25.54,25.54,0,0,0-42-5.4,25.62,25.62,0,0,0-41.91,4.48A24.46,24.46,0,0,0,54.75,30.61a26.3,26.3,0,0,0-6.38-.79,26,26,0,0,0-26,26,26.6,26.6,0,0,0,.49,5,22.43,22.43,0,0,0-11.8,30.77A34.49,34.49,0,0,0,55.72,143,32.64,32.64,0,0,0,103,159.56a21.34,21.34,0,0,0,32.35,4.59,29.23,29.23,0,0,0,51.57,15.19,24.45,24.45,0,0,0,43.62-15.19,24,24,0,0,0-.38-4.27h.38a24.46,24.46,0,0,0,19.79-38.83A28.35,28.35,0,0,0,262,98.06Z"/><polyline class="cls-1" points="54.4 99.92 81 99.92 97.53 45.93 126.05 124.96 149.35 75.5 163.43 99.92 204.65 99.92"/></g></g></svg>