<svg xmlns="http://www.w3.org/2000/svg" viewBox="0 0 523.4 435.98"><defs><style>.cls-1{fill:#fff6f0;stroke:#6d6c6f;stroke-linecap:round;stroke-linejoin:round;stroke-width:6px;}</style></defs><g id="Layer_2" data-name="Layer 2"><g id="Layer_1-2" data-name="Layer 1"><rect class="cls-1" x="15.14" y="18.08" width="490.8" height="414.91"/><rect class="cls-1" x="3" y="3" width="510.62" height="15.08"/><rect class="cls-1" x="177.09" y="253.54" width="174.96" height="174.97"/><rect class="cls-1" x="206.26" y="293.25" width="118.41" height="135.46"/><rect class="cls-1" x="263.26" y="293.25" width="4.41" height="135.46"/><path class="cls-1" d="M252.71,361a2.8,2.8,0,1,1,2.8,2.8A2.8,2.8,0,0,1,252.71,361Z"/><path class="cls-1" d="M272.63,361a2.8,2.8,0,1,1,2.8,2.8A2.8,2.8,0,0,1,272.63,361Z"/><rect class="cls-1" x="7.51" y="194.05" width="512.89" height="18.05"/><rect class="cls-1" x="76.87" y="424.97" width="383.18" height="8.01"/></g></g></svg>