<svg xmlns="http://www.w3.org/2000/svg" viewBox="0 0 348.15 406.05"><defs><style>.cls-1{fill:none;stroke:#6d6c6f;stroke-linecap:round;stroke-linejoin:round;stroke-width:6px;}</style></defs><g id="Layer_2" data-name="Layer 2"><g id="Layer_1-2" data-name="Layer 1"><path class="cls-1" d="M310.41,397.65c-5.87-17.68-12.47-35-17.49-53.1-6.54-23.59,1.87-50.61,17.8-77.33,28.76-48.23,33.62-86.08,34.42-114.09.2-35.54-7.33-64.68-23.63-88.18-33.44-48.22-84-62.78-136-61.91-24.15.4-52.24,6.83-76.38,20.2-5.28,2.92-10.46,6.1-15.59,9.36-36,22.91-55.34,56.93-52,105.76,1.85,27.4-9.19,47.75-25.91,65.08-3.65,3.79-7.29,7.53-9.92,12.37C1.16,224.08,2.33,230.08,9.57,235c4.65,3.12,9.53,5.78,13.64,9.89,6.27,6.29,6.78,10.09,2.41,18.25-4.92,9.18-4.88,9.55,3.33,15.7,2.21,1.65,4.52,2.87,1.61,6.22-4.29,4.93-2.55,9.55,1.38,12.92,5.53,4.72,6.54,11,5.76,18-.69,6.16-1.79,12.25-2.69,18.37-2.43,16.52,1.93,24,16.26,27.88,15,4,29.57-.35,44.3-2.31,9.87-1.32,19.5-5.23,29.71-2.93,6.63,1.49,10.4,5.58,11.49,13.25,1.59,11.19,5.13,21.82,7.31,32.82"/></g></g></svg>