<?xml version="1.0" encoding="utf-8"?>
<!-- Generator: Adobe Illustrator 25.1.0, SVG Export Plug-In . SVG Version: 6.00 Build 0)  -->
<svg version="1.1" id="Layer_1" xmlns="http://www.w3.org/2000/svg" xmlns:xlink="http://www.w3.org/1999/xlink" x="0px" y="0px"
	 viewBox="0 0 300 349.7" style="enable-background:new 0 0 300 349.7;" xml:space="preserve">
<style type="text/css">
	.st0{fill:none;stroke:#6D6C6F;stroke-width:5;stroke-linecap:round;stroke-miterlimit:10;}
	.st1{fill:#FFC988;stroke:#6D6C6F;stroke-width:5;stroke-linecap:round;stroke-miterlimit:10;}
</style>
<path class="st0" d="M267.1,342.1c-5-15.2-10.7-30.1-15-45.6c-5.6-20.3,1.6-43.5,15.3-66.4c24.7-41.4,28.9-74,29.6-98
	c0.2-30.5-6.3-55.6-20.3-75.8C247.9,14.8,204.5,2.3,159.8,3C139,3.3,114.9,8.9,94.2,20.4c-4.5,2.5-9,5.2-13.4,8
	c-30.9,19.8-47.6,49-44.7,90.9c1.6,23.5-7.9,41-22.3,55.9c-3.1,3.2-6.3,6.5-8.5,10.6c-3.8,7.1-2.8,12.2,3.4,16.4
	c4,2.7,8.2,5,11.7,8.5c5.4,5.4,5.8,8.7,2.1,15.7c-4.2,7.9-4.2,8.2,2.9,13.5c1.9,1.4,3.9,2.5,1.4,5.4c-3.7,4.2-2.2,8.2,1.2,11.1
	c4.8,4,5.6,9.4,4.9,15.5c-0.6,5.3-1.5,10.5-2.3,15.8c-2.1,14.2,1.7,20.6,14,24c12.8,3.5,25.4-0.3,38.1-2c8.5-1.1,16.8-4.5,25.5-2.5
	c5.7,1.3,8.9,4.8,9.9,11.4c1.4,9.6,4.4,18.8,6.3,28.2"/>
<path class="st1" d="M277.4,109.6c0-10.1-6.3-19.2-15.8-22.8c4.8-12-1-25.6-13-30.4c-2.8-1.1-5.7-1.7-8.7-1.7c-0.8,0-1.5,0-2.3,0.1
	c-2.9-12.2-15-19.7-27.2-16.8c-2,0.5-4,1.2-5.8,2.3c-5.4-10.8-18.6-15.2-29.4-9.8c-2.5,1.3-4.8,3-6.7,5.2c-7.9-9.2-21.8-10.2-31-2.3
	c-2,1.7-3.7,3.8-5,6.2c-9.2-7-22.4-5.2-29.4,4c-1.8,2.4-3.1,5.2-3.8,8.2c-1.8-0.4-3.6-0.7-5.5-0.7c-12.3,0-22.3,10-22.3,22.3
	c0,1.4,0.1,2.9,0.4,4.3c-9.9,3.9-14.7,15.1-10.8,25c0.2,0.5,0.4,0.9,0.6,1.4c-10.5,12.5-8.9,31.2,3.7,41.7
	c9.8,8.2,23.8,9.2,34.7,2.5c5.4,14.5,21.6,21.8,36,16.4c1.6-0.6,3.1-1.3,4.5-2.2c5.4,8.6,16.7,11.2,25.3,5.8
	c0.9-0.6,1.7-1.2,2.5-1.9c1.6,13.8,14.1,23.6,27.9,22c6.4-0.8,12.3-4,16.4-9c7.1,9.1,20.3,10.7,29.5,3.6c6.1-4.8,9.1-12.6,7.7-20.2
	h0.3c11.6,0,21-9.4,21-21c0-4.5-1.4-8.8-4-12.4C273.6,124.8,277.4,117.4,277.4,109.6z"/>
<polyline class="st0" points="99,111.2 121.8,111.2 136,64.8 160.5,132.7 180.6,90.2 192.7,111.2 228.1,111.2 "/>
</svg>
