<svg xmlns="http://www.w3.org/2000/svg" viewBox="0 0 329.18 423.86"><defs><style>.cls-1{fill:none;stroke:#6d6c6f;stroke-linecap:round;stroke-linejoin:round;stroke-width:6px;}</style></defs><g id="Layer_2" data-name="Layer 2"><g id="Layer_1-2" data-name="Layer 1"><rect class="cls-1" x="54.49" y="115.8" width="40.49" height="40.49" rx="10.61"/><rect class="cls-1" x="54.49" y="189.49" width="40.49" height="40.49" rx="10.61"/><rect class="cls-1" x="54.49" y="263.18" width="40.49" height="40.49" rx="10.61"/><path class="cls-1" d="M170.67,21.87H159.89V14.32A11.31,11.31,0,0,0,148.58,3H113.06a11.31,11.31,0,0,0-11.31,11.32v7.55H91a9,9,0,0,0-9,9V67.08a9,9,0,0,0,9,9h79.7a9,9,0,0,0,9-9V30.89A9,9,0,0,0,170.67,21.87Z"/><path class="cls-1" d="M82,67.22H36.72A11.66,11.66,0,0,0,25.06,78.88v252.9a11.66,11.66,0,0,0,11.66,11.67h91.9"/><path class="cls-1" d="M236.59,258.73V78.88a11.67,11.67,0,0,0-11.67-11.66H179.69"/><path class="cls-1" d="M82,43.44H31.57A28.58,28.58,0,0,0,3,72V338.65a28.57,28.57,0,0,0,28.57,28.57h116"/><path class="cls-1" d="M258.64,251.53V72a28.58,28.58,0,0,0-28.57-28.58H179.7"/><line class="cls-1" x1="113.78" y1="124.44" x2="165.91" y2="124.44"/><line class="cls-1" x1="113.78" y1="149.69" x2="180.95" y2="149.69"/><path class="cls-1" d="M268.48,251.21c-18.27-1.2-41.11,8.25-46.37,23-5.7-14.62-33.84-23.34-52.07-21.72-48.11,4.25-63.68,55.07-42.75,88.88,11.26,18.2,27.29,34,44.74,48.22,8.58,7,25.09,18.53,37.28,26.85a26.43,26.43,0,0,0,29.77-.34c11.94-8.6,28.11-20.53,36.48-27.7,17-14.59,32.58-30.79,43.31-49.25C338.79,304.87,316.7,254.35,268.48,251.21Z"/><line class="cls-1" x1="113.78" y1="198.48" x2="213.59" y2="198.48"/><line class="cls-1" x1="113.78" y1="219.69" x2="213.59" y2="219.69"/><polyline class="cls-1" points="151.19 340.7 176.33 340.7 191.95 289.68 218.9 364.37 240.92 317.62 254.23 340.7 293.19 340.7"/></g></g></svg>