<svg xmlns="http://www.w3.org/2000/svg" viewBox="0 0 484.47 616.6"><defs><style>.cls-1{fill:none;stroke:#6d6c6f;stroke-linecap:round;stroke-linejoin:round;stroke-width:6px;}</style></defs><g id="Layer_1" data-name="Layer 1"><circle class="cls-1" cx="95.95" cy="147.84" r="25.95"/><path class="cls-1" d="M65.56,207.71a30.35,30.35,0,1,1,60.69,0v83H65.56Z"/><circle class="cls-1" cx="169.12" cy="147.84" r="25.95"/><path class="cls-1" d="M138.72,207.71a30.35,30.35,0,0,1,60.7,0v83h-60.7Z"/><circle class="cls-1" cx="388.62" cy="147.84" r="25.95"/><path class="cls-1" d="M358.22,207.71a30.35,30.35,0,0,1,60.7,0v83h-60.7Z"/><circle class="cls-1" cx="242.29" cy="147.84" r="25.95"/><path class="cls-1" d="M211.89,207.71a30.35,30.35,0,1,1,60.69,0v83H211.89Z"/><circle class="cls-1" cx="315.45" cy="147.84" r="25.95"/><path class="cls-1" d="M285.06,207.71a30.35,30.35,0,1,1,60.69,0v83H285.06Z"/><circle class="cls-1" cx="95.95" cy="351.85" r="25.95"/><path class="cls-1" d="M65.56,411.71a30.35,30.35,0,0,1,60.69,0v83H65.56Z"/><circle class="cls-1" cx="169.12" cy="351.85" r="25.95"/><path class="cls-1" d="M138.72,411.71a30.35,30.35,0,0,1,60.7,0v83h-60.7Z"/><circle class="cls-1" cx="388.62" cy="351.85" r="25.95"/><path class="cls-1" d="M358.22,411.71a30.35,30.35,0,0,1,60.7,0v83h-60.7Z"/><circle class="cls-1" cx="242.29" cy="351.85" r="25.95"/><path class="cls-1" d="M211.89,411.71a30.35,30.35,0,0,1,60.69,0v83H211.89Z"/><circle class="cls-1" cx="315.45" cy="351.85" r="25.95"/><path class="cls-1" d="M285.06,411.71a30.35,30.35,0,0,1,60.69,0v83H285.06Z"/></g></svg>