<?xml version="1.0" encoding="utf-8"?>
<!-- Generator: Adobe Illustrator 25.1.0, SVG Export Plug-In . SVG Version: 6.00 Build 0)  -->
<svg version="1.1" id="Layer_1" xmlns="http://www.w3.org/2000/svg" xmlns:xlink="http://www.w3.org/1999/xlink" x="0px" y="0px"
	 viewBox="0 0 348.1 600.1" style="enable-background:new 0 0 348.1 600.1;" xml:space="preserve">
<style type="text/css">
	.st0{fill:none;stroke:#6D6C6F;stroke-width:6;stroke-linecap:round;stroke-linejoin:round;}
</style>
<g id="Layer_2_1_">
	<g id="Layer_1-2">
		<path class="st0" d="M310.4,494.6c-5.9-17.7-12.5-35-17.5-53.1c-6.5-23.6,1.9-50.6,17.8-77.3c28.8-48.2,33.6-86.1,34.4-114.1
			c0.2-35.5-7.3-64.7-23.6-88.2c-33.4-48.2-84-62.8-136-61.9c-24.1,0.4-52.2,6.8-76.4,20.2c-5.3,2.9-10.5,6.1-15.6,9.4
			c-36,22.9-55.3,56.9-52,105.8c1.8,27.4-9.2,47.8-25.9,65.1c-3.6,3.8-7.3,7.5-9.9,12.4c-4.6,8.3-3.4,14.3,3.9,19.2
			c4.6,3.1,9.5,5.8,13.6,9.9c6.3,6.3,6.8,10.1,2.4,18.3c-4.9,9.2-4.9,9.5,3.3,15.7c2.2,1.6,4.5,2.9,1.6,6.2
			c-4.3,4.9-2.5,9.5,1.4,12.9c5.5,4.7,6.5,11,5.8,18c-0.7,6.2-1.8,12.2-2.7,18.4c-2.4,16.5,1.9,24,16.3,27.9c15,4,29.6-0.4,44.3-2.3
			c9.9-1.3,19.5-5.2,29.7-2.9c6.6,1.5,10.4,5.6,11.5,13.2c1.6,11.2,5.1,21.8,7.3,32.8"/>
	</g>
</g>
<g id="Layer_2_2_">
	<g id="Layer_1-2_1_">
		<path class="st0" d="M324.2,223.3c0-11.8-7.3-22.4-18.4-26.6c5.6-13.9-1.1-29.8-15.1-35.4c-3.2-1.3-6.7-2-10.2-2
			c-0.9,0-1.8,0-2.7,0.1c-3.3-14.1-17.5-22.9-31.6-19.6c-2.4,0.6-4.6,1.4-6.7,2.6c-6.3-12.6-21.7-17.7-34.3-11.4
			c-2.9,1.5-5.5,3.5-7.7,6c-9.2-10.7-25.4-11.9-36.1-2.7c-2.3,2-4.3,4.4-5.8,7.2c-10.8-8.2-26.1-6.1-34.3,4.7
			c-2.2,2.8-3.7,6.1-4.4,9.6c-2.1-0.5-4.2-0.8-6.4-0.8c-14.4,0-26,11.6-26,26c0,1.7,0.2,3.4,0.5,5c-11.5,4.6-17.1,17.6-12.5,29.1
			c0.2,0.6,0.5,1.1,0.7,1.6C61,231.3,63,253.1,77.6,265.3c11.4,9.5,27.6,10.7,40.3,2.8c6.3,16.9,25.2,25.4,42,19.1
			c1.8-0.7,3.6-1.5,5.3-2.5c6.2,10,19.4,13,29.4,6.8c1-0.7,2-1.4,2.9-2.2c1.9,16,16.4,27.5,32.4,25.6c7.5-0.9,14.3-4.6,19.1-10.4
			c8.4,10.6,23.8,12.4,34.3,4c5.9-4.6,9.3-11.7,9.3-19.2c0-1.4-0.1-2.9-0.4-4.3h0.4c13.5,0,24.5-11,24.5-24.5
			c0-5.2-1.6-10.2-4.7-14.4C319.9,240.9,324.2,232.4,324.2,223.3z"/>
		<polyline class="st0" points="116.6,225.1 143.2,225.1 159.7,171.1 188.3,250.2 211.6,200.7 225.6,225.1 266.9,225.1 		"/>
	</g>
</g>
</svg>
