<svg xmlns="http://www.w3.org/2000/svg" viewBox="0 0 418.04 417.93"><defs><style>.cls-1{fill:none;stroke:#6d6c6f;stroke-miterlimit:10;stroke-width:6px;}</style></defs><g id="Layer_2" data-name="Layer 2"><g id="Layer_1-2" data-name="Layer 1"><path class="cls-1" d="M358.2,66.94,336.89,81.15,301.36,74l-21.31-7.1L251.63,74l-21.31-7.1,14.21-28.42h28.41L300.79,24.6A203.4,203.4,0,0,1,358.2,66.94Z"/><path class="cls-1" d="M194.79,38.52l-7.1,21.32-21.31,7.1-21.32,35.52-35.52,21.32-49.73,7.1V152.2L74,166.4v28.42L52.7,180.61,31.39,166.4,19,129.25A205.9,205.9,0,0,1,132,17.92l20.18,13.5Z"/><polygon class="cls-1" points="209 237.45 201.9 272.97 173.48 301.39 173.48 322.7 145.06 344.02 145.06 379.54 123.75 372.44 109.54 336.91 109.54 265.87 74.02 258.76 59.81 230.34 59.81 209.03 74.02 194.82 95.33 173.51 109.54 201.93 159.27 201.93 180.59 237.45 209 237.45"/><path class="cls-1" d="M388.75,108.36a205.85,205.85,0,0,1-11.37,219.32L358.2,308.5V280.08L344,251.66l-14.21-28.42V194.82l-21.31-14.21-28.42,7.11L230.32,166.4l-7.11-49.73,21.32-21.31h42.63l14.2,21.31L344,123.78l42.63-14.21Z"/><path class="cls-1" d="M251.63,74l28.42-7.1L301.36,74l35.53,7.11L358.2,66.94a202.59,202.59,0,0,1,30.55,41.42l-2.13,1.21L344,123.78l-42.62-7.11L287.16,95.36H244.53l-21.32,21.31,7.11,49.73,49.73,21.32,28.42-7.11,21.31,14.21v28.42L344,251.66l14.21,28.42V308.5l19.18,19.18c-65.61,93-194.17,115.14-287.13,49.53A206,206,0,0,1,19,129.25L31.39,166.4,52.7,180.61,74,194.82,59.81,209v21.32L74,258.76l35.52,7.11v71l14.21,35.53,21.31,7.1V344l28.42-21.32V301.39L201.9,273l7.1-35.52H180.59l-21.32-35.52H109.54L95.33,173.51,74,194.82V166.4L59.81,152.2V130.88l49.73-7.1,35.52-21.32,21.32-35.52,21.31-7.11,7.11-21.31-42.63-7.1L132,17.92A206,206,0,0,1,300.8,24.6L273,38.52H244.53L230.32,66.94Z"/></g></g></svg>