<svg xmlns="http://www.w3.org/2000/svg" viewBox="0 0 257.79 378.62"><defs><style>.cls-1{fill:none;stroke:#6d6c6f;stroke-miterlimit:10;stroke-width:6px;}</style></defs><g id="Layer_2" data-name="Layer 2"><g id="Layer_1-2" data-name="Layer 1"><path class="cls-1" d="M233.79,43.85h-56V67.08a9,9,0,0,1-9,9H89a9,9,0,0,1-9-9V43.85H24a21,21,0,0,0-21,21V354.62a21,21,0,0,0,21,21H233.79a21,21,0,0,0,21-21V64.85A21,21,0,0,0,233.79,43.85Z"/><path class="cls-1" d="M218.72,64.69H177.77v2.39a9,9,0,0,1-9,9H89a9,9,0,0,1-9-9V64.69H39.07a15,15,0,0,0-15,15V332.85a15,15,0,0,0,15,15H218.72a15,15,0,0,0,15-15V79.69A15,15,0,0,0,218.72,64.69Z"/><rect class="cls-1" x="52.56" y="115.8" width="40.49" height="40.49" rx="10.61"/><rect class="cls-1" x="52.56" y="189.49" width="40.49" height="40.49" rx="10.61"/><rect class="cls-1" x="52.56" y="263.18" width="40.49" height="40.49" rx="10.61"/><path class="cls-1" d="M168.74,21.87H158V14.32A11.32,11.32,0,0,0,146.65,3H111.14A11.32,11.32,0,0,0,99.82,14.32v7.55H89a9,9,0,0,0-9,9V67.08a9,9,0,0,0,9,9h79.7a9,9,0,0,0,9-9V30.89A9,9,0,0,0,168.74,21.87Z"/><line class="cls-1" x1="111.85" y1="124.44" x2="163.98" y2="124.44"/><line class="cls-1" x1="111.85" y1="149.69" x2="179.02" y2="149.69"/><line class="cls-1" x1="111.85" y1="198.48" x2="211.67" y2="198.48"/><line class="cls-1" x1="111.85" y1="219.69" x2="211.67" y2="219.69"/><line class="cls-1" x1="111.85" y1="272.52" x2="211.67" y2="272.52"/><line class="cls-1" x1="111.85" y1="293.72" x2="211.67" y2="293.72"/></g></g></svg>