<?xml version="1.0" encoding="utf-8"?>
<!-- Generator: Adobe Illustrator 25.1.0, SVG Export Plug-In . SVG Version: 6.00 Build 0)  -->
<svg version="1.1" id="Layer_1" xmlns="http://www.w3.org/2000/svg" xmlns:xlink="http://www.w3.org/1999/xlink" x="0px" y="0px"
	 viewBox="0 0 257.8 378.6" style="enable-background:new 0 0 257.8 378.6;" xml:space="preserve">
<style type="text/css">
	.st0{fill:#FFF6F0;stroke:#6D6C6F;stroke-width:6;stroke-linecap:round;stroke-linejoin:round;}
	.st1{fill:#FFFFFF;stroke:#6D6C6F;stroke-width:6;stroke-linecap:round;stroke-linejoin:round;}
	.st2{fill:#FFD5A8;stroke:#6D6C6F;stroke-width:6;stroke-linecap:round;stroke-linejoin:round;}
	.st3{fill:url(#SVGID_1_);stroke:#6D6C6F;stroke-width:6;stroke-linecap:round;stroke-linejoin:round;}
	.st4{fill:none;stroke:#6D6C6F;stroke-width:6;stroke-linecap:round;stroke-linejoin:round;}
</style>
<path class="st0" d="M24,43.8h209.8c11.6,0,21,9.4,21,21v289.8c0,11.6-9.4,21-21,21H24c-11.6,0-21-9.4-21-21V64.8
	C3,53.3,12.4,43.8,24,43.8z"/>
<path class="st1" d="M39.1,64.7h179.6c8.3,0,15,6.7,15,15v253.2c0,8.3-6.7,15-15,15H39.1c-8.3,0-15-6.7-15-15V79.7
	C24.1,71.4,30.8,64.7,39.1,64.7z"/>
<path class="st2" d="M63.2,115.8h19.3c5.9,0,10.6,4.8,10.6,10.6v19.3c0,5.9-4.8,10.6-10.6,10.6H63.2c-5.9,0-10.6-4.8-10.6-10.6
	v-19.3C52.6,120.6,57.3,115.8,63.2,115.8z"/>
<path class="st2" d="M63.2,189.5h19.3c5.9,0,10.6,4.8,10.6,10.6v19.3c0,5.9-4.8,10.6-10.6,10.6H63.2c-5.9,0-10.6-4.8-10.6-10.6
	v-19.3C52.6,194.2,57.3,189.5,63.2,189.5z"/>
<path class="st2" d="M63.2,263.2h19.3c5.9,0,10.6,4.8,10.6,10.6v19.3c0,5.9-4.8,10.6-10.6,10.6H63.2c-5.9,0-10.6-4.8-10.6-10.6
	v-19.3C52.6,267.9,57.3,263.2,63.2,263.2z"/>
<linearGradient id="SVGID_1_" gradientUnits="userSpaceOnUse" x1="80" y1="340.46" x2="177.7" y2="340.46" gradientTransform="matrix(1 0 0 -1 0 380)">
	<stop  offset="0" style="stop-color:#F8B24E"/>
	<stop  offset="1" style="stop-color:#FFC988"/>
</linearGradient>
<path class="st3" d="M168.7,21.9H158v-7.6C158,8.1,152.9,3,146.7,3c0,0,0,0,0,0h-35.5c-6.3,0-11.3,5.1-11.3,11.3v7.5H89
	c-5,0-9,4-9,9v36.2c0,5,4,9,9,9h79.7c5,0,9-4,9-9V30.9C177.7,25.9,173.7,21.9,168.7,21.9z"/>
<line class="st4" x1="111.8" y1="124.4" x2="164" y2="124.4"/>
<line class="st4" x1="111.8" y1="149.7" x2="179" y2="149.7"/>
<line class="st4" x1="111.8" y1="198.5" x2="211.7" y2="198.5"/>
<line class="st4" x1="111.8" y1="219.7" x2="211.7" y2="219.7"/>
<line class="st4" x1="111.8" y1="272.5" x2="211.7" y2="272.5"/>
<line class="st4" x1="111.8" y1="293.7" x2="211.7" y2="293.7"/>
</svg>
