<svg xmlns="http://www.w3.org/2000/svg" viewBox="0 0 484.47 616.6"><defs><style>.cls-1{fill:none;stroke:#6d6c6f;stroke-linecap:round;stroke-linejoin:round;stroke-width:6px;}</style></defs><g id="Layer_1" data-name="Layer 1"><path class="cls-1" d="M391.42,167.47,370.1,181.68l-35.52-7.1-21.31-7.11-28.42,7.11-21.31-7.11,14.2-28.42h28.42L334,125.13A203.59,203.59,0,0,1,391.42,167.47Z"/><path class="cls-1" d="M228,139.05l-7.1,21.32-21.32,7.1L178.28,203l-35.52,21.31L93,231.41v21.32l14.2,14.21v28.42L85.92,281.15,64.61,266.94,52.25,229.78a205.87,205.87,0,0,1,113-111.33L185.39,132Z"/><polygon class="cls-1" points="242.22 337.98 235.12 373.5 206.7 401.92 206.7 423.24 178.28 444.55 178.28 480.07 156.97 472.97 142.76 437.45 142.76 366.4 107.23 359.3 93.03 330.88 93.03 309.56 107.23 295.35 128.55 274.04 142.76 302.46 192.49 302.46 213.8 337.98 242.22 337.98"/><path class="cls-1" d="M422,208.89A205.85,205.85,0,0,1,410.6,428.21L391.42,409V380.61l-14.21-28.42L363,323.77V295.35l-21.31-14.21-28.42,7.11-49.73-21.31-7.11-49.74,21.32-21.31h42.62l14.21,21.31,42.63,7.11,42.63-14.21Z"/><path class="cls-1" d="M284.85,174.58l28.42-7.11,21.31,7.11,35.53,7.1,21.31-14.21A202.86,202.86,0,0,1,422,208.89l-2.13,1.21-42.63,14.21-42.63-7.11-14.21-21.31H277.75L256.43,217.2l7.11,49.74,49.73,21.31,28.42-7.1L363,295.35v28.42l14.21,28.42,14.21,28.42V409l19.18,19.18c-65.61,93-194.17,115.15-287.13,49.53a206,206,0,0,1-71.22-248l12.36,37.16,21.31,14.2,21.32,14.21L93,309.56v21.32l14.21,28.42,35.52,7.1v71.05L157,473l21.31,7.1V444.55l28.42-21.31V401.92l28.42-28.42,7.1-35.52H213.8l-21.31-35.52H142.76L128.55,274l-21.31,21.31V266.94L93,252.73V231.41l49.73-7.1L178.28,203l21.32-35.52,21.31-7.1,7.1-21.32L185.39,132l-20.18-13.5A206.06,206.06,0,0,1,334,125.13l-27.85,13.92H277.75l-14.21,28.42Z"/></g></svg>