<svg xmlns="http://www.w3.org/2000/svg" viewBox="0 0 484.47 616.6"><defs><style>.cls-1{fill:none;stroke:#6d6c6f;stroke-linecap:round;stroke-linejoin:round;stroke-width:6px;}</style></defs><g id="Layer_1" data-name="Layer 1"><path class="cls-1" d="M359.38,504.87c-5.05-15.19-10.72-30.1-15-45.62-5.63-20.27,1.6-43.48,15.29-66.44,24.71-41.44,28.89-74,29.58-98,.17-30.54-6.31-55.57-20.31-75.77a117,117,0,0,0-62.68-46.09,38.36,38.36,0,0,1-5.12,6.29,144,144,0,0,1-13.84,11.51q-11.83,8.68-16.73,15a23.86,23.86,0,0,0-4.91,15,8.35,8.35,0,0,1-3.4,6.58,12,12,0,0,1-7.92,2.82,12.37,12.37,0,0,1-7.93-2.7,8.23,8.23,0,0,1-3.4-6.7q0-10.8,4-18.55a52.32,52.32,0,0,1,8.81-12.8,122.9,122.9,0,0,1,15.09-12.8,112.41,112.41,0,0,0,11.17-9.08,193.24,193.24,0,0,0-30-1.73,144.61,144.61,0,0,0-65.62,17.36c-4.53,2.51-9,5.24-13.39,8-30.93,19.68-47.55,48.91-44.72,90.87,1.59,23.54-7.9,41-22.26,55.92-3.14,3.25-6.27,6.47-8.53,10.63-3.85,7.1-2.84,12.25,3.38,16.44,4,2.69,8.18,5,11.71,8.51,5.39,5.39,5.84,8.67,2.08,15.68-4.23,7.89-4.2,8.2,2.86,13.49,1.89,1.41,3.88,2.46,1.38,5.34-3.69,4.24-2.19,8.21,1.19,11.1,4.75,4.06,5.62,9.43,4.94,15.49-.58,5.29-1.53,10.53-2.31,15.79-2.09,14.19,1.66,20.63,14,23.94,12.86,3.47,25.41-.29,38.06-2,8.48-1.13,16.76-4.49,25.54-2.52,5.69,1.28,8.93,4.8,9.87,11.39,1.36,9.61,4.41,18.75,6.28,28.19"/><path class="cls-1" d="M243.23,270.58a13.34,13.34,0,0,1-4.53-10.1,13.11,13.11,0,0,1,4.53-9.87,15,15,0,0,1,10.57-4.22,15.34,15.34,0,0,1,10.82,4.22,13.11,13.11,0,0,1,4.53,9.87,13.34,13.34,0,0,1-4.53,10.1,15.31,15.31,0,0,1-10.82,4.23A15,15,0,0,1,243.23,270.58Z"/><path class="cls-1" d="M246.38,227.48a8.23,8.23,0,0,1-3.4-6.7q0-10.8,4-18.55a52.32,52.32,0,0,1,8.81-12.8,122.9,122.9,0,0,1,15.09-12.8q10.32-7.51,14.47-12.57a17.16,17.16,0,0,0,4.16-11.16q0-25.36-35.74-25.36a73,73,0,0,0-17.11,2,55.62,55.62,0,0,0-14.85,5.76,14.07,14.07,0,0,1-6.54,1.88,10.19,10.19,0,0,1-7.17-2.94,8.94,8.94,0,0,1-3.15-6.69q0-5.4,6.29-9.17a77.35,77.35,0,0,1,20.89-8.69,99.94,99.94,0,0,1,23.66-2.58q25.9,0,41.39,12.1t15.48,32.53a36.29,36.29,0,0,1-3.52,16,40.7,40.7,0,0,1-8.06,11.51,144,144,0,0,1-13.84,11.51q-11.83,8.68-16.73,15a23.86,23.86,0,0,0-4.91,15,8.35,8.35,0,0,1-3.4,6.58,12,12,0,0,1-7.92,2.82A12.37,12.37,0,0,1,246.38,227.48Z"/><path class="cls-1" d="M369.62,272.41a24.4,24.4,0,0,0-15.78-22.83,23.38,23.38,0,0,0-21.69-32.11c-.77,0-1.54,0-2.3.11a22.6,22.6,0,0,0-33-14.57,22.07,22.07,0,0,0-11.78-10.67Q275,200,270.54,205.75a23.86,23.86,0,0,0-4.91,15,8.35,8.35,0,0,1-3.4,6.58,12,12,0,0,1-7.92,2.82,12.37,12.37,0,0,1-7.93-2.7,8.23,8.23,0,0,1-3.4-6.7q0-10.8,4-18.55a55.89,55.89,0,0,1,6-9.6,22,22,0,0,0-28.29,9.59,21,21,0,0,0-33.23,12.24,22,22,0,0,0-5.48-.68,22.3,22.3,0,0,0-22.31,22.3,22.55,22.55,0,0,0,.42,4.3A19.28,19.28,0,0,0,154,266.82,29.63,29.63,0,0,0,192.36,311a28,28,0,0,0,40.58,14.22,18.35,18.35,0,0,0,27.8,3.94,25.12,25.12,0,0,0,44.31,13.06,21,21,0,0,0,37.15-16.73h.32a21,21,0,0,0,17-33.36A24.38,24.38,0,0,0,369.62,272.41Z"/></g></svg>