<?xml version="1.0" encoding="utf-8"?>
<!-- Generator: Adobe Illustrator 25.1.0, SVG Export Plug-In . SVG Version: 6.00 Build 0)  -->
<svg version="1.1" id="Layer_1" xmlns="http://www.w3.org/2000/svg" xmlns:xlink="http://www.w3.org/1999/xlink" x="0px" y="0px"
	 viewBox="0 0 418 417.9" style="enable-background:new 0 0 418 417.9;" xml:space="preserve">
<style type="text/css">
	.st0{fill:url(#SVGID_1_);stroke:#6D6C6F;stroke-width:6;stroke-linecap:round;stroke-linejoin:round;}
	.st1{fill:url(#SVGID_2_);stroke:#6D6C6F;stroke-width:6;stroke-linecap:round;stroke-linejoin:round;}
	.st2{fill:url(#SVGID_3_);stroke:#6D6C6F;stroke-width:6;stroke-linecap:round;stroke-linejoin:round;}
	.st3{fill:url(#SVGID_4_);stroke:#6D6C6F;stroke-width:6;stroke-linecap:round;stroke-linejoin:round;}
	.st4{fill:#FFF6F0;stroke:#6D6C6F;stroke-width:6;stroke-linecap:round;stroke-linejoin:round;}
</style>
<radialGradient id="SVGID_1_" cx="294.26" cy="367.125" r="49.4358" gradientTransform="matrix(1 0 0 -1 0 420)" gradientUnits="userSpaceOnUse">
	<stop  offset="0" style="stop-color:#F8B24E"/>
	<stop  offset="1" style="stop-color:#FFC988"/>
</radialGradient>
<path class="st0" d="M358.2,66.9l-21.3,14.2L301.4,74L280,66.9L251.6,74l-21.3-7.1l14.2-28.4h28.4l27.9-13.9
	C322.3,35.2,341.7,49.6,358.2,66.9z"/>
<radialGradient id="SVGID_2_" cx="106.895" cy="313.63" r="88.1729" gradientTransform="matrix(1 0 0 -1 0 420)" gradientUnits="userSpaceOnUse">
	<stop  offset="0" style="stop-color:#F8B24E"/>
	<stop  offset="1" style="stop-color:#FFC988"/>
</radialGradient>
<path class="st1" d="M194.8,38.5l-7.1,21.3l-21.3,7.1l-21.3,35.5l-35.5,21.3l-49.7,7.1v21.3L74,166.4v28.4l-21.3-14.2l-21.3-14.2
	L19,129.2C40.3,78.5,81,38.4,132,17.9l20.2,13.5L194.8,38.5z"/>
<radialGradient id="SVGID_3_" cx="134.405" cy="143.475" r="89.9347" gradientTransform="matrix(1 0 0 -1 0 420)" gradientUnits="userSpaceOnUse">
	<stop  offset="0" style="stop-color:#F8B24E"/>
	<stop  offset="1" style="stop-color:#FFC988"/>
</radialGradient>
<polygon class="st2" points="209,237.4 201.9,273 173.5,301.4 173.5,322.7 145.1,344 145.1,379.5 123.8,372.4 109.5,336.9 
	109.5,265.9 74,258.8 59.8,230.3 59.8,209 74,194.8 95.3,173.5 109.5,201.9 159.3,201.9 180.6,237.4 "/>
<radialGradient id="SVGID_4_" cx="319.1212" cy="208.48" r="106.5178" gradientTransform="matrix(1 0 0 -1 0 420)" gradientUnits="userSpaceOnUse">
	<stop  offset="0" style="stop-color:#F8B24E"/>
	<stop  offset="1" style="stop-color:#FFC988"/>
</radialGradient>
<path class="st3" d="M388.8,108.4c38.8,69.2,34.4,154.5-11.4,219.3l-19.2-19.2v-28.4L344,251.7l-14.2-28.4v-28.4l-21.3-14.2
	l-28.4,7.1l-49.7-21.3l-7.1-49.7l21.3-21.3h42.6l14.2,21.3l42.6,7.1l42.6-14.2L388.8,108.4z"/>
<path class="st4" d="M251.6,74l28.4-7.1l21.3,7.1l35.5,7.1l21.3-14.2c11.9,12.5,22.2,26.4,30.5,41.4l-2.1,1.2L344,123.8l-42.6-7.1
	l-14.2-21.3h-42.6l-21.3,21.3l7.1,49.7l49.7,21.3l28.4-7.1l21.3,14.2v28.4l14.2,28.4l14.2,28.4v28.4l19.2,19.2
	c-65.6,93-194.2,115.1-287.1,49.5c-79-55.7-108.6-158.8-71.3-248l12.4,37.1l21.3,14.2L74,194.8L59.8,209v21.3L74,258.8l35.5,7.1v71
	l14.2,35.5l21.3,7.1V344l28.4-21.3v-21.3l28.4-28.4l7.1-35.5h-28.4L159.3,202h-49.7l-14.2-28.4L74,194.8v-28.4l-14.2-14.2v-21.3
	l49.7-7.1l35.5-21.3l21.3-35.5l21.3-7.1l7.1-21.3l-42.6-7.1L132,17.9c54.6-22,116.1-19.6,168.8,6.7L273,38.5h-28.5l-14.2,28.4
	L251.6,74z"/>
</svg>
