<?xml version="1.0" encoding="utf-8"?>
<!-- Generator: Adobe Illustrator 25.1.0, SVG Export Plug-In . SVG Version: 6.00 Build 0)  -->
<svg version="1.1" id="Layer_1" xmlns="http://www.w3.org/2000/svg" xmlns:xlink="http://www.w3.org/1999/xlink" x="0px" y="0px"
	 viewBox="0 0 69 215.7" style="enable-background:new 0 0 69 215.7;" xml:space="preserve">
<style type="text/css">
	.st0{fill:#22824D;}
</style>
<path class="st0" d="M45.5,15.2V7l-0.1,0.2c-0.2,0.5-0.5,1-0.9,1.5c-0.3,0.3-0.5,0.5-0.6,0.5c-0.4,0-0.6-0.3-0.6-0.8
	c0-0.2,0.1-0.4,0.2-0.6c1.3-2.1,2.4-4.4,3.2-6.8c0.1-0.2,0.2-0.5,0.4-0.7C47.1,0.1,47.3,0,47.4,0c0.5,0,0.8,0.2,0.8,0.7
	c-0.4,1.2-0.8,2.4-1.4,3.5v11c0,0.6-0.2,0.8-0.7,0.8S45.5,15.8,45.5,15.2z M47.3,15.1c0-0.2,0.1-0.4,0.2-0.5
	c1.5-1.6,2.2-3.7,2.1-5.9c0-0.5,0.2-0.7,0.7-0.7c0.3,0,0.7,0.2,0.7,0.5c0,0.1,0,0.1,0,0.2c0,0.9-0.1,1.8-0.2,2.7
	c0.5,1,1.4,1.8,2.4,2.3V7.1h-2.5c-0.5,0-0.9-0.1-1.3-0.4c-0.3-0.3-0.4-0.8-0.3-1.2V2.6C49,1.4,49.5,0.9,50.7,1H57
	c1.2-0.1,1.7,0.5,1.6,1.6v2.9c0,0.5-0.1,0.9-0.4,1.3c-0.4,0.3-0.8,0.4-1.2,0.3h-2.4v2.5h3.2c0.6,0,0.8,0.2,0.8,0.6s-0.3,0.6-0.8,0.6
	h-3.2v3.2c0.6,0.1,1.3,0.1,1.9,0.1h1.6h0.3c0.2,0,0.5,0,0.6,0.2c0.1,0.1,0.2,0.4,0.2,0.6c0,0.5-0.3,0.8-1,0.8
	c-1.7,0.1-3.4-0.1-5.1-0.5c-1.2-0.5-2.2-1.4-2.9-2.5c-0.3,0.8-0.7,1.5-1.2,2.2c-0.2,0.3-0.4,0.5-0.7,0.7c-0.1,0.1-0.3,0.2-0.5,0.2
	c-0.4,0-0.7-0.2-0.7-0.6C47.3,15.2,47.3,15.2,47.3,15.1z M57.2,5.1V3c0.1-0.3-0.2-0.7-0.5-0.7c-0.1,0-0.1,0-0.2,0h-5.3
	c-0.4,0-0.7,0.2-0.7,0.6c0,0,0,0.1,0,0.1v2.1c0,0.4,0.2,0.7,0.7,0.7h5.3C56.9,5.8,57.2,5.6,57.2,5.1z"/>
<path class="st0" d="M59.3,32.8c0,0.5-0.3,0.7-1,0.7h-2.8h-2.7c-1.5,0-3-0.1-4.5-0.3c-0.4-0.1-0.7-0.3-1.1-0.5
	c-0.3-0.2-0.7-0.5-1-0.7c-0.4,0.4-0.9,0.8-1.4,1.1c-0.3,0.2-0.6,0.3-0.9,0.4c-0.2,0-0.4-0.1-0.5-0.2c-0.1-0.2-0.2-0.4-0.2-0.6
	c0-0.4,0.3-0.7,0.8-0.9l0.5-0.2c0.3-0.1,0.7-0.3,1-0.5v-3.3c0-0.1,0-0.3-0.2-0.4c-0.1-0.1-0.2-0.1-0.4-0.1H44c-0.2,0-0.4,0-0.5-0.2
	c-0.1-0.1-0.2-0.3-0.2-0.5c0-0.2,0-0.4,0.2-0.5c0.2-0.1,0.3-0.2,0.5-0.2h1.5c0.4,0,0.8,0.1,1.1,0.3c0.2,0.3,0.3,0.6,0.3,1v3.5
	l0.5,0.5c0.8,0.6,2.5,0.9,5,0.9h2.7h1.9c0.7,0,1.2,0,1.5,0h0.2c0.3,0,0.6,0.2,0.7,0.5C59.3,32.7,59.3,32.8,59.3,32.8z M43.3,22.4
	c0-0.2,0-0.4,0.2-0.5c0.1-0.1,0.3-0.2,0.5-0.1c0.5,0.1,1,0.3,1.5,0.5c0.8,0.3,1.1,0.6,1.1,1c0.1,0.3-0.2,0.6-0.5,0.7
	c-0.1,0-0.1,0-0.2,0c-0.2,0-0.4-0.1-0.6-0.2l-1.4-0.6C43.6,23,43.4,22.7,43.3,22.4L43.3,22.4z M44,19c-0.1-0.3,0.2-0.6,0.5-0.7
	c0.1,0,0.1,0,0.2,0c0.5,0.1,1,0.3,1.4,0.5c0.3,0.1,0.6,0.3,0.8,0.5c0.2,0.1,0.3,0.3,0.3,0.5c0,0.5-0.2,0.7-0.7,0.7
	c-0.3-0.1-0.5-0.2-0.7-0.3l-1.2-0.6C44.3,19.6,44.1,19.3,44,19L44,19z M46.8,23.3c0.1-0.4,0.3-0.7,0.6-1c0.9-1.1,1.6-2.3,2.1-3.6
	c0.2-0.5,0.4-0.7,0.7-0.7c0.2,0,0.4,0,0.5,0.1c0.1,0.1,0.2,0.3,0.2,0.5c-0.1,0.7-0.4,1.3-0.8,1.8h3.2l0.7-1.8c0-0.1,0.1-0.3,0.3-0.4
	c0.1-0.1,0.3-0.1,0.4-0.1c0.3-0.1,0.6,0.2,0.7,0.5c0,0.1,0,0.1,0,0.2c-0.2,0.6-0.4,1.1-0.8,1.5H58c0.5,0,0.7,0.2,0.7,0.6
	c0,0.2,0,0.3-0.2,0.5c-0.2,0.1-0.3,0.2-0.5,0.1h-3.2v1.8h2.9c0.4,0,0.7,0.2,0.7,0.6c0,0.3-0.2,0.6-0.5,0.6c-0.1,0-0.1,0-0.2,0h-2.9
	v1.8h2.9c0.4,0,0.7,0.2,0.7,0.6s-0.2,0.6-0.7,0.6h-2.9v1.8h3.5c0.4,0,0.7,0.2,0.7,0.6s-0.2,0.6-0.7,0.6h-8c-0.4,0-0.9-0.1-1.2-0.4
	c-0.3-0.3-0.4-0.8-0.3-1.2v-6.6c-0.5,0.6-0.8,1-1,1.2S47.4,24,47.3,24C47,24,46.8,23.8,46.8,23.3L46.8,23.3z M50.2,21.8
	c-0.1,0.1-0.1,0.2-0.1,0.3v1.3h3.3v-1.8h-2.9C50.5,21.7,50.3,21.7,50.2,21.8L50.2,21.8z M50.1,26.5h3.3v-1.8h-3.3L50.1,26.5z
	 M53.5,29.5v-1.8h-3.3v1.1c0,0.2,0.1,0.4,0.2,0.5c0.1,0.1,0.3,0.2,0.5,0.2L53.5,29.5z"/>
<path class="st0" d="M59.3,48.3c0,0.6-0.3,0.8-0.8,0.8S57,48.4,55.6,47c-1.5-1.5-2.7-3.2-3.7-5v5.7h2.8c0.2,0,0.4,0,0.6,0.2
	c0.1,0.1,0.2,0.3,0.2,0.5c0,0.5-0.2,0.7-0.7,0.7H52v2c0,0.6-0.2,0.9-0.7,0.9s-0.7-0.3-0.7-0.9v-2h-2.7c-0.5,0-0.8-0.2-0.8-0.7
	s0.2-0.7,0.8-0.7h2.7V42c-1,1.8-2.2,3.5-3.6,5c-1.4,1.5-2.3,2.3-2.8,2.3c-0.4,0-0.7-0.2-0.8-0.6c0-0.1,0-0.1,0-0.2
	c0-0.4,0.2-0.7,0.5-0.8c1.3-0.9,2.5-2,3.5-3.3c1-1.1,1.8-2.4,2.5-3.7h-5.5c-0.6,0-0.8-0.2-0.8-0.7s0.3-0.7,0.8-0.7h6.1V37
	c0-0.6,0.2-0.9,0.7-0.9S52,36.4,52,37v2.3h6.3c0.6,0,0.8,0.2,0.8,0.7c0,0.5-0.3,0.7-0.8,0.7h-5.8c0.7,1.4,1.5,2.7,2.6,3.8
	c1,1.2,2.2,2.2,3.6,3C59.1,47.7,59.3,48,59.3,48.3z"/>
<path class="st0" d="M43.3,67c0-0.2,0.1-0.4,0.2-0.6c0.2-0.1,0.4-0.2,0.6-0.3l1.5-0.3v-6.2h-1.4c-0.5,0-0.7-0.2-0.7-0.7
	s0.2-0.7,0.7-0.7h1.4v-3.4c0-0.5,0.2-0.8,0.7-0.8s0.7,0.2,0.7,0.8v3.4h1.2c0.5,0,0.8,0.2,0.8,0.7s-0.2,0.7-0.8,0.7h-1.2v5.8l1.1-0.3
	c0.1,0,0.2,0,0.3,0c0.1,0,0.3,0,0.4,0.1c0.1,0.1,0.2,0.3,0.2,0.4c0,0.1,0,0.1,0,0.2c0,0.2-0.1,0.3-0.2,0.4c-0.2,0.1-0.4,0.2-0.6,0.3
	c-1.3,0.5-2.7,0.8-4.1,1.1C43.5,67.7,43.3,67.5,43.3,67z M51.2,69.4c-0.8,0-1.4-0.7-1.4-1.5c0,0,0-0.1,0-0.1v-6.2
	c-0.5,0.2-1,0.4-1.5,0.5c-0.2,0-0.3,0-0.4-0.2c-0.1-0.2-0.2-0.3-0.1-0.5c0-0.3,0.2-0.6,0.6-0.7l1.5-0.6v-3.9c0-0.5,0.2-0.8,0.7-0.8
	s0.7,0.3,0.7,0.8v3.3l2.2-0.9v-3.9c0-0.5,0.2-0.8,0.7-0.8s0.7,0.2,0.7,0.8v3.4l1.9-0.8c0.3-0.1,0.6-0.2,0.9-0.2
	c0.8,0,1.1,0.5,1.1,1.4v4c0,1.8-0.9,2.6-2.6,2.6c-0.5,0-0.7-0.3-0.7-0.8c0-0.4,0.2-0.6,0.8-0.7s0.9-0.2,1-0.4
	c0.1-0.2,0.1-0.5,0.1-0.7v-3.2c0-0.4-0.1-0.5-0.4-0.5l-0.3,0l-1.8,0.7V66c0,0.5-0.2,0.8-0.7,0.8s-0.7-0.3-0.7-0.8v-5.8L51.1,61v6.3
	c0,0.3,0.2,0.6,0.5,0.7c1.1,0.2,2.1,0.2,3.2,0.2c0.9,0.1,1.7,0,2.5-0.3c0.3-0.2,0.5-0.6,0.4-0.9c0-0.3,0.1-0.6,0.2-0.9
	c0.1-0.2,0.3-0.3,0.5-0.2c0.5,0,0.8,0.3,0.8,0.8c0,1.4-0.3,2.2-1,2.5c-1.3,0.3-2.7,0.5-4.1,0.4C53.2,69.5,52.2,69.5,51.2,69.4
	L51.2,69.4z"/>
<path class="st0" d="M58.4,87.3V84c0.1-0.4-0.2-0.8-0.6-0.8c-0.1,0-0.1,0-0.2,0H46.2c-0.5,0-0.7-0.2-0.7-0.7s0.2-0.7,0.7-0.7h12
	c0.4,0,0.7,0.1,1,0.4c0.3,0.3,0.4,0.6,0.4,1v4.1c0,0.5-0.2,0.7-0.7,0.7S58.4,87.8,58.4,87.3z"/>
<path class="st0" d="M43.2,93.8c0-0.4,0.3-0.7,0.8-0.7h4.5c0.5,0,0.8,0.2,0.8,0.7s-0.3,0.7-0.8,0.7H44
	C43.5,94.4,43.2,94.2,43.2,93.8z M43.7,91.4c0-0.4,0.3-0.7,0.8-0.7H48c0.5,0,0.8,0.2,0.8,0.7s-0.3,0.7-0.8,0.7h-3.5
	C44,92.1,43.7,91.8,43.7,91.4z M43.7,96.1c0-0.2,0.1-0.4,0.3-0.5c0.2-0.1,0.4-0.2,0.7-0.2h3.2c0.5,0,0.8,0.2,0.8,0.7
	s-0.3,0.7-0.8,0.7h-3.3C44,96.7,43.7,96.5,43.7,96.1L43.7,96.1z M43.7,98.4c0-0.4,0.2-0.7,0.8-0.7h3.4c0.5,0,0.8,0.2,0.8,0.7
	s-0.3,0.7-0.8,0.7h-3.3C44,99.1,43.7,98.9,43.7,98.4L43.7,98.4z M43.7,104v-2.5c-0.1-0.7,0.4-1.3,1.1-1.4c0.1,0,0.2,0,0.3,0h2
	c0.7-0.1,1.3,0.4,1.4,1.1c0,0.1,0,0.2,0,0.4v2.5c0.1,0.7-0.4,1.3-1.1,1.4c-0.1,0-0.2,0-0.4,0h-2C44.2,105.4,43.7,104.9,43.7,104
	L43.7,104z M47.3,103.8v-2.1c0-0.3-0.1-0.4-0.4-0.4h-1.5c-0.3,0-0.4,0.2-0.4,0.4v2.1c0,0.2,0.1,0.4,0.3,0.4c0,0,0.1,0,0.1,0h1.5
	C47.2,104.2,47.4,104,47.3,103.8C47.4,103.8,47.4,103.8,47.3,103.8L47.3,103.8z M48.8,104.3c0-0.2,0.1-0.3,0.2-0.5
	c0.3-0.8,0.5-1.7,0.6-2.6c0.1-0.6,0.3-0.9,0.7-0.9c0.3,0,0.5,0.2,0.6,0.4c0,0,0,0.1,0,0.1c0,1.1-0.2,2.1-0.6,3.1
	c-0.2,0.6-0.4,0.9-0.8,0.9S48.9,104.7,48.8,104.3L48.8,104.3z M49.4,98.2c0-0.2,0.3-0.5,1-0.8c0.9-0.5,1.6-1.2,2-2.1L51,94.4
	c-0.4-0.2-0.6-0.4-0.6-0.6c0-0.3,0.2-0.6,0.4-0.6c0.1,0,0.1,0,0.2,0c0.6,0.2,1.2,0.5,1.8,0.8c0.1-0.2,0.1-0.5,0.2-0.8
	c0-0.2,0-0.5,0-0.9h-2.5c-0.5,0-0.8-0.2-0.8-0.7s0.3-0.7,0.8-0.7h6.9c1.1,0,1.6,0.4,1.6,1.3c0,0.2,0,0.6,0,0.9s0,0.6-0.1,0.8v0.4
	c0,1.2-0.2,2.3-0.6,3.4c-0.3,0.7-1.1,1-2.4,1c-0.6,0-0.8-0.2-0.8-0.8c0-0.2,0.1-0.4,0.3-0.5c0.3-0.1,0.7-0.2,1-0.2
	c0.5,0,0.8-0.4,0.8-1.1c0.2-1.4,0.2-2.5,0.2-3.3c0-0.3-0.2-0.5-0.6-0.5h-2.6c-0.1,0.8-0.2,1.6-0.3,2.3c1.3,0.7,2,1.2,2,1.5
	c0,0.3-0.2,0.6-0.5,0.7c-0.1,0-0.1,0-0.2,0c-0.6-0.2-1.2-0.6-1.7-1c-0.4,0.8-1,1.6-1.7,2.2c-0.4,0.5-1,0.8-1.7,0.9
	C49.7,98.9,49.5,98.6,49.4,98.2L49.4,98.2z M52.2,105.4c-0.4-0.3-0.6-0.8-0.5-1.2v-3.6c0-0.6,0.2-0.8,0.7-0.8s0.7,0.3,0.7,0.8v3.2
	c0,0.3,0.1,0.5,0.2,0.5c0.3,0.1,0.7,0.2,1,0.1c0.3,0,0.6,0,0.8-0.1c0.1,0,0.2-0.1,0.3-0.2c0.1-0.3,0.2-0.7,0.2-1
	c0-0.5,0.2-0.7,0.6-0.7c0.5,0,0.7,0.2,0.7,0.8c0,1.1-0.2,1.8-0.5,2.1c-0.5,0.3-1.1,0.5-1.6,0.4C53.8,105.7,53,105.6,52.2,105.4
	L52.2,105.4z M54,100.1c-0.3-0.3-0.5-0.6-0.6-0.9c0-0.4,0.2-0.6,0.7-0.6c0.2,0,0.5,0.2,1,0.7c0.5,0.5,0.7,0.8,0.7,1
	c0,0.4-0.2,0.6-0.7,0.6C54.8,101,54.5,100.7,54,100.1z M58.1,104.1c-0.4-0.9-0.8-1.9-1.3-2.8c-0.1-0.1-0.1-0.3-0.1-0.4
	c0-0.4,0.2-0.6,0.6-0.6c0.3,0,0.5,0.2,0.7,0.4c0.7,0.9,1.2,2,1.5,3.1c0,0.4-0.2,0.7-0.6,0.8C58.5,104.6,58.2,104.4,58.1,104.1z"/>
<path class="st0" d="M48.5,116.1c0,0.5-0.1,1-0.1,1.3c0,0.4-0.1,0.7-0.2,1.1c0.1-0.1,0.2-0.1,0.3-0.1c0.1,0,0.2,0,0.3,0
	c0.3,0.1,0.9,0.5,1.7,1.4s1.2,1.5,1.2,1.9c0,0.4-0.2,0.7-0.6,0.7c-0.1,0-0.1,0-0.2,0c-0.2,0-0.4-0.2-0.6-0.4l-0.3-0.4
	c-0.1-0.2-0.3-0.4-0.5-0.6c-0.5-0.6-0.9-1.1-1.4-1.6c-0.1-0.1-0.1-0.1-0.2-0.2c-0.3,1.2-1,2.4-1.8,3.3c-0.5,0.7-1.3,1.2-2.2,1.3
	c-0.2,0-0.4-0.1-0.5-0.2c-0.1-0.1-0.2-0.3-0.2-0.4c0-0.3,0.3-0.8,1.1-1.2c0.9-0.6,1.6-1.3,2-2.3c0.5-1.1,0.7-2.3,0.7-3.5h-3
	c-0.5,0-0.8-0.2-0.8-0.7s0.3-0.7,0.8-0.7h3v-3.4h-1.4c-0.3,0.7-0.6,1.4-1,2c-0.1,0.2-0.4,0.4-0.6,0.4c-0.3,0.1-0.6-0.2-0.7-0.5
	c0-0.1,0-0.1,0-0.2c0-0.2,0.1-0.4,0.3-0.6c0.7-1.2,1.2-2.5,1.6-3.8c0.1-0.4,0.4-0.7,0.7-0.7s0.7,0.2,0.7,0.6c-0.1,0.5-0.3,1-0.5,1.5
	h4.5c0.5,0,0.8,0.2,0.8,0.7s-0.3,0.7-0.8,0.7h-2.1v3.4H51c0.5,0,0.8,0.2,0.8,0.7s-0.3,0.7-0.8,0.7L48.5,116.1z M58.3,122.6
	c-0.4,0.3-0.9,0.4-1.4,0.4H54c-0.5,0.1-1,0-1.4-0.4c-0.3-0.4-0.4-0.9-0.4-1.4v-9.9c0-0.5,0.1-1,0.4-1.3c0.3-0.3,0.8-0.5,1.3-0.4h3
	c0.5,0,0.9,0.1,1.3,0.4c0.3,0.3,0.5,0.8,0.4,1.3v10C58.7,121.8,58.6,122.3,58.3,122.6z M57.2,120.7v-8.9c0.1-0.4-0.2-0.8-0.6-0.9
	c-0.1,0-0.1,0-0.2,0h-1.8c-0.4-0.1-0.8,0.2-0.9,0.6c0,0.1,0,0.2,0,0.2v8.9c-0.1,0.4,0.2,0.8,0.6,0.9c0.1,0,0.2,0,0.2,0h1.8
	c0.4,0.1,0.8-0.2,0.8-0.6C57.2,120.9,57.2,120.8,57.2,120.7z"/>
<path class="st0" d="M48.8,135.9c0,1.7-0.8,2.6-2.3,2.6c-0.6,0-0.8-0.3-0.8-0.8c0-0.4,0.3-0.7,1-0.8s0.8-0.5,0.8-1.3
	c-0.1-1-0.4-1.9-1-2.6c-0.2-0.2-0.3-0.5-0.3-0.8c0-0.4,0.2-0.7,0.3-1c0.6-0.9,0.9-1.9,1.1-3c0-0.2-0.1-0.3-0.4-0.3H46
	c-0.4,0-0.5,0.2-0.6,0.6v12.8c0,0.5-0.2,0.8-0.7,0.8s-0.7-0.3-0.7-0.8v-13.1c0-0.4,0.1-0.9,0.4-1.2c0.3-0.3,0.7-0.4,1.2-0.3h2.1
	c1,0,1.4,0.3,1.4,0.9c-0.2,0.9-0.5,1.7-0.9,2.5c-0.4,0.7-0.7,1.4-0.9,2.2c0.1,0.4,0.3,0.7,0.5,1C48.5,134,48.8,135,48.8,135.9z
	 M59.4,138.7c0,0.4-0.2,0.6-0.7,0.6h-4.1v2c0,0.5-0.2,0.7-0.7,0.7s-0.7-0.2-0.7-0.7v-2H49c-0.5,0-0.7-0.2-0.7-0.6s0.2-0.6,0.7-0.6
	h4.3v-0.9h-2.4c-0.6,0.1-1.2-0.4-1.3-1c0-0.1,0-0.2,0-0.3v-2.2c-0.1-0.6,0.3-1.2,1-1.3c0.1,0,0.2,0,0.3,0H57c0.7-0.1,1.3,0.4,1.4,1
	c0,0.1,0,0.2,0,0.3v2.2c0.1,0.7-0.3,1.3-1,1.4c-0.1,0-0.2,0-0.3,0h-2.4v0.9h4.1C59.2,138.1,59.4,138.3,59.4,138.7L59.4,138.7z
	 M49.2,130.3h2.1l-0.3-1.7H50c-0.5,0-0.7-0.2-0.7-0.6s0.2-0.6,0.7-0.6h3.2v-0.7c-0.1-0.3,0.2-0.7,0.5-0.7c0.1,0,0.1,0,0.2,0
	c0.5,0,0.7,0.2,0.7,0.7v0.7h3.8c0.5,0,0.7,0.2,0.7,0.6s-0.2,0.6-0.7,0.6h-1.4l-0.4,1.7h2.1c0.5,0,0.7,0.2,0.7,0.6s-0.2,0.6-0.7,0.6
	h-9.5c-0.5,0-0.7-0.2-0.7-0.6S48.7,130.3,49.2,130.3L49.2,130.3z M50.8,134.2h6.2v-0.3c0-0.3-0.2-0.5-0.5-0.5h-5.2
	c-0.2,0-0.5,0.1-0.5,0.4c0,0,0,0.1,0,0.1L50.8,134.2z M56.5,136.1c0.3,0,0.5-0.2,0.5-0.4c0,0,0-0.1,0-0.1v-0.4h-6.2v0.4
	c0,0.3,0.2,0.4,0.5,0.5L56.5,136.1z M55.5,128.6h-3.4l0.3,1.7h2.8L55.5,128.6z"/>
<path class="st0" d="M45.1,158.1c-0.2-0.3-0.4-0.6-0.3-1v-4c-0.3,0.9-0.6,1.4-0.9,1.4c-0.2,0-0.3-0.1-0.4-0.2
	c-0.1-0.2-0.1-0.4-0.1-0.6c0-0.3,0.1-0.6,0.3-0.9c1-2,1.7-4.2,1.8-6.5v-0.1h-1.2c-0.5,0-0.8-0.2-0.8-0.6s0.3-0.7,0.8-0.7h3.6
	c0.5,0,0.8,0.2,0.8,0.7s-0.3,0.6-0.8,0.6h-1c-0.2,1.4-0.6,2.8-1,4.1c0.2,0,0.6,0,1.3,0c0.7-0.1,1.3,0.4,1.4,1c0,0.1,0,0.2,0,0.4v5.4
	c0.1,0.7-0.4,1.3-1.1,1.3c-0.1,0-0.2,0-0.4,0h-0.9C45.7,158.5,45.3,158.4,45.1,158.1z M47.2,156.7v-4.7c0-0.2-0.2-0.5-0.4-0.5
	c0,0-0.1,0-0.1,0h-0.5c-0.2,0-0.3,0.1-0.3,0.2c0,0,0,0.1,0,0.1v4.9c0,0.3,0.2,0.5,0.5,0.5h0.4C47.1,157.2,47.2,157.1,47.2,156.7z
	 M47.8,158.9c0-0.2,0.2-0.4,0.6-0.7c1-0.7,1.6-1.8,1.7-3h-0.9c-0.2,0-0.4,0-0.5-0.1c-0.1-0.1-0.2-0.3-0.2-0.4c0-0.4,0.2-0.6,0.7-0.6
	h1l0.1-1.6h-0.5c-0.3,0.7-0.6,1.1-0.8,1.1c-0.3,0-0.5-0.1-0.5-0.4c0,0,0-0.1,0-0.1c0.1-0.3,0.2-0.6,0.3-0.9c0.2-0.5,0.4-1,0.5-1.5
	c0.1-0.4,0.3-0.5,0.5-0.5s0.6,0.1,0.6,0.5l-0.2,0.7h2.1c0.4,0,0.7,0.2,0.7,0.6s-0.2,0.6-0.7,0.6h-1v1.6h1.2c0.5,0,0.7,0.2,0.7,0.6
	s-0.2,0.6-0.7,0.6h-1.3l-0.3,1.1c0.1-0.1,0.2-0.1,0.3-0.1c0.3,0.1,0.6,0.2,0.8,0.5c0.3,0.2,0.4,0.5,0.5,0.8c0,0.3-0.1,0.6-0.4,0.6
	c-0.1,0-0.1,0-0.2,0c-0.1,0-0.3-0.1-0.5-0.4c-0.1-0.2-0.3-0.4-0.5-0.5l-0.2-0.2c-0.2,0.7-0.6,1.3-1.1,1.8c-0.3,0.4-0.8,0.7-1.3,0.8
	C48,159.5,47.8,159.3,47.8,158.9z M49.6,149.8c-0.5-0.1-0.7-0.5-0.7-1.2v-3.9c0-0.5,0.2-0.7,0.7-0.7s0.7,0.2,0.7,0.7v1.3
	c0.5-0.2,1-0.5,1.4-0.8c0.1-0.1,0.3-0.2,0.5-0.2c0.3,0,0.6,0.2,0.6,0.5c0,0,0,0.1,0,0.2c0,0.4-0.8,0.9-2.5,1.6v1
	c0,0.3,0,0.4,0.1,0.5h0.9c0.2,0,0.5,0,0.7-0.1c0.1-0.1,0.2-0.3,0.2-0.7c0-0.3,0.3-0.5,0.5-0.5c0,0,0,0,0.1,0c0.4,0,0.6,0.2,0.6,0.6
	c0.1,0.6-0.1,1.2-0.5,1.6c-0.6,0.3-1.2,0.4-1.9,0.3C50.6,149.9,50.1,149.9,49.6,149.8z M51.9,159.1c0-0.2,0.1-0.4,0.3-0.6
	c1-1.5,1.5-3.3,1.3-5.1v-0.7c0-0.2,0-0.3,0.1-0.5c0.1-0.1,0.3-0.2,0.5-0.1c0.4,0,0.6,0.2,0.6,0.5l-0.1,2.2l-0.2,1.2
	c0.2,0.6,0.6,1.1,1,1.5V151h-1.9c-0.5,0-0.7-0.2-0.7-0.6s0.2-0.6,0.7-0.6H58c0.8,0,1.2,0.3,1.2,0.8c-0.1,0.5-0.2,1.1-0.5,1.6
	c-0.3,0.8-0.6,1.3-0.9,1.3c-0.4,0-0.6-0.2-0.6-0.6c0-0.2,0.1-0.3,0.2-0.5c0.2-0.4,0.4-0.8,0.5-1.2c0-0.1-0.1-0.1-0.2-0.1h-1v3.1h1.4
	c0.5,0,0.7,0.2,0.7,0.7s-0.2,0.6-0.7,0.6h-1.4v2.6c0.3,0.1,0.6,0.1,1,0.1h1c0.5,0,0.7,0.2,0.7,0.7s-0.3,0.7-0.9,0.7
	c-1.1,0-2.1-0.2-3.1-0.6c-0.6-0.3-1-0.9-1.3-1.5c-0.5,1.5-1,2.3-1.6,2.3C52.1,159.7,51.9,159.5,51.9,159.1z M56.1,149.3
	c-0.4-0.4-1-0.9-1.8-1.4c-0.3-0.2-0.4-0.3-0.4-0.5c0-0.3,0.2-0.5,0.4-0.6c0.1,0,0.1,0,0.2,0c0.3,0.1,0.6,0.2,0.8,0.4l0.5,0.3l0.9-1
	l0.3-0.3c0.1-0.1,0.1-0.1,0.1-0.2c0,0,0-0.1-0.1-0.1h-3.3c-0.5,0-0.7-0.2-0.7-0.6s0.2-0.6,0.7-0.6h4.1c0.8,0,1.1,0.2,1.1,0.8
	c-0.2,0.5-0.4,0.9-0.8,1.2c-0.4,0.5-0.9,1-1.4,1.5c0.4,0.3,0.6,0.6,0.6,0.8c0,0.2-0.1,0.3-0.2,0.5c-0.1,0.1-0.3,0.2-0.5,0.2
	C56.5,149.6,56.3,149.4,56.1,149.3L56.1,149.3z"/>
<path class="st0" d="M43.4,176.8c0-0.3,0.2-0.5,0.4-0.7c1.1-1.4,1.8-3.2,2-5c-0.5,0.5-1.1,0.9-1.8,1.1c-0.5,0-0.7-0.2-0.7-0.8
	c0-0.3,0.2-0.6,0.5-0.7c0.7-0.3,1.4-0.7,2-1.1v-4.3c0-0.4,0.1-0.9,0.5-1.2c0.4-0.3,0.8-0.4,1.3-0.4h3.8v-1.1c0-0.5,0.3-0.8,0.8-0.8
	s0.8,0.2,0.8,0.8v1.1h5.4c0.5,0,0.8,0.2,0.8,0.7s-0.3,0.7-0.8,0.7H47.8c-0.4,0-0.5,0.2-0.5,0.7v1.3c0,1.8-0.1,3.6-0.3,5.3
	c-0.2,1.2-0.6,2.4-1.2,3.5c-0.6,1.1-1.2,1.7-1.6,1.7S43.4,177.4,43.4,176.8z M43.9,167.3c-0.1-0.4-0.2-0.9-0.3-1.3l-0.1-0.6
	c0-0.1,0-0.3,0.1-0.4c0.2-0.1,0.3-0.1,0.5-0.1c0.2,0,0.4,0.1,0.5,0.3c0.3,0.7,0.5,1.4,0.5,2.1l0.1,0.4c0,0.2,0,0.3-0.1,0.4
	c-0.1,0.1-0.3,0.2-0.5,0.1C44.2,168.3,44,168,43.9,167.3z M46.2,176.5c0-0.4,0.2-0.6,0.8-0.6h1.8v-4.8c0-0.6,0.2-0.9,0.7-0.9
	s0.7,0.3,0.7,0.9v4.8h2.6v-7.3h-4.3c-0.5,0-0.8-0.2-0.8-0.7s0.2-0.6,0.8-0.6h9.6c0.5,0,0.8,0.2,0.8,0.7s-0.3,0.6-0.8,0.6h-3.9v2.9
	h3.2c0.5,0,0.8,0.2,0.8,0.7s-0.3,0.6-0.8,0.6h-3.2v3.1h4.3c0.5,0,0.8,0.2,0.8,0.7s-0.3,0.6-0.8,0.6H46.9
	C46.4,177.2,46.2,177,46.2,176.5z"/>
<path class="st0" d="M43.3,185.8c-0.3-0.2-0.4-0.6-0.4-0.9v-4.1c0-0.5,0.2-0.7,0.7-0.7s0.7,0.2,0.7,0.7v3.4
	c-0.1,0.4,0.2,0.8,0.6,0.8c0.1,0,0.1,0,0.2,0h11.3c0.5,0,0.8,0.2,0.8,0.6s-0.2,0.6-0.8,0.6h-12C44,186.2,43.6,186,43.3,185.8z"/>
<path class="st0" d="M44.1,213.3c-0.2-0.3-0.4-0.6-0.3-1v-10c0-0.4,0.1-0.7,0.3-1c0.3-0.3,0.6-0.4,1-0.4H46c0.1-0.5,0.2-1.3,0.3-2.2
	c0-0.2,0.1-0.3,0.2-0.5c0.1-0.1,0.3-0.2,0.5-0.2c0.6,0,0.8,0.3,0.8,0.9c-0.1,0.7-0.2,1.3-0.5,2h1.3c0.7-0.1,1.3,0.4,1.3,1
	c0,0.1,0,0.2,0,0.3v10c0.1,0.7-0.4,1.3-1,1.4c-0.1,0-0.2,0-0.3,0h-3.6C44.8,213.7,44.4,213.6,44.1,213.3z M48.6,202.9
	c0-0.3-0.2-0.5-0.4-0.6c-0.1,0-0.1,0-0.2,0h-2.2c-0.3,0-0.5,0.2-0.6,0.4c0,0.1,0,0.1,0,0.2v3.5h3.4L48.6,202.9z M48.6,211.8v-4.1
	h-3.4v4.1c0,0.3,0.2,0.5,0.4,0.6c0.1,0,0.1,0,0.2,0H48c0.3,0.1,0.5-0.1,0.6-0.4C48.6,211.9,48.6,211.8,48.6,211.8z M53.8,213.8
	c-0.1-0.1-0.2-0.3-0.2-0.5c0-0.5,0.3-0.7,0.8-0.7c0.7,0,1.2,0,1.5,0c0.2,0,0.5-0.1,0.7-0.2c0.2-0.1,0.3-0.3,0.4-0.6
	c0.2-1.2,0.4-2.3,0.4-3.5c0.1-1.9,0.1-3.6,0.1-5.3c0-0.4-0.2-0.7-0.8-0.7h-3.9c-0.3,0.8-0.6,1.5-1.1,2.1c-0.1,0.2-0.4,0.4-0.6,0.4
	c-0.1,0-0.3,0-0.4-0.1c-0.2-0.1-0.3-0.3-0.3-0.6c0-0.2,0.1-0.3,0.1-0.5c0.4-0.8,0.8-1.5,1.1-2.3c0.3-0.9,0.6-1.7,0.8-2.6
	c0-0.2,0.1-0.3,0.3-0.5c0.1-0.1,0.3-0.2,0.5-0.2h0.2c0.3,0,0.5,0.3,0.5,0.6c0,0.1,0,0.3,0,0.4c-0.1,0.3-0.2,0.7-0.3,1
	c-0.1,0.3-0.2,0.5-0.3,0.8h4.2c1,0,1.5,0.4,1.5,1.3c0,2.2-0.1,4.3-0.2,6.4c0,1.4-0.2,2.8-0.6,4.1c-0.2,0.5-0.5,0.8-1,1
	c-0.6,0.2-1.3,0.3-2,0.3c-0.3,0-0.6,0-0.8,0C54.3,214,54,213.9,53.8,213.8z M53.9,209.1c-0.2-0.2-0.3-0.4-0.4-0.6
	c-0.2-0.4-0.5-0.9-1-1.6l-0.2-0.4c-0.1-0.1-0.1-0.2-0.2-0.3c0-0.1-0.1-0.2-0.1-0.3c0-0.2,0.1-0.3,0.2-0.5c0.1-0.1,0.3-0.2,0.5-0.2
	c0.2,0,0.4,0.1,0.6,0.3c0.3,0.3,0.6,0.6,0.8,1c0.5,0.6,0.8,1.3,1,2c0,0.2-0.1,0.3-0.2,0.5c-0.1,0.1-0.3,0.2-0.5,0.2
	C54.2,209.3,54.1,209.2,53.9,209.1z"/>
<path class="st0" d="M27.4,13c0,0.2-0.1,0.4-0.2,0.6c-0.2,0.2-0.4,0.2-0.7,0.2h-7.7v3.6c0,0.3-0.1,0.6-0.2,0.9
	c-0.2,0.2-0.4,0.3-0.7,0.3c-0.6,0-0.9-0.4-0.9-1.1v-3.6H9.3c-0.2,0-0.5-0.1-0.7-0.2c-0.3-0.3-0.3-0.8,0-1.1c0,0,0,0,0,0
	c0.2-0.1,0.4-0.2,0.7-0.2H17V10h-4.1c-1.5,0.1-2.2-0.6-2.1-2.1V2.6c-0.1-0.6,0.1-1.2,0.4-1.7c0.5-0.4,1.1-0.6,1.7-0.5H23
	c0.6-0.1,1.2,0.1,1.7,0.5c0.4,0.5,0.5,1,0.4,1.6v5.3c0.1,1.5-0.6,2.2-2.1,2.1h-4.2v2.2h7.6C27.1,12.2,27.4,12.5,27.4,13z M12.4,4.5
	h11V2.8c0-0.2-0.1-0.4-0.2-0.6C23.1,2.1,22.8,2,22.6,2h-9.4c-0.2,0-0.4,0.1-0.6,0.2c-0.1,0.2-0.2,0.4-0.2,0.6L12.4,4.5z M12.6,8.3
	c0.2,0.1,0.4,0.2,0.6,0.2h9.4c0.4,0,0.8-0.2,0.8-0.6c0-0.1,0-0.1,0-0.2V6h-11v1.7C12.4,7.9,12.5,8.1,12.6,8.3z"/>
<path class="st0" d="M8.5,34.7c0-0.5,0.3-0.8,0.8-0.8h1.1v-8.2H9.6c-0.5,0-0.8-0.2-0.8-0.8s0.3-0.8,0.8-0.8h0.8v-1.6
	c0-0.6,0.3-1,0.8-1c0.2,0,0.4,0.1,0.6,0.2c0.1,0.2,0.2,0.5,0.2,0.7v1.6h4v-1.5c0-0.6,0.3-1,0.8-1s0.8,0.3,0.8,1v1.6h0.7
	c0.6,0,0.8,0.2,0.8,0.8s-0.3,0.8-0.8,0.8h-0.7V34h0.8c0.5,0,0.8,0.2,0.8,0.8c0,0.4-0.2,0.7-0.6,0.8c-0.1,0-0.1,0-0.2,0h-9
	C8.8,35.5,8.5,35.2,8.5,34.7z M8.5,38.8c0-0.3,0.2-0.6,0.7-0.9c0.7-0.5,1.3-1,1.9-1.6c0.2-0.2,0.5-0.4,0.8-0.4
	c0.4,0,0.7,0.2,0.8,0.6c0,0.1,0,0.1,0,0.2c0,0.4-0.5,1-1.4,1.8s-1.6,1.2-1.9,1.2C8.8,39.7,8.5,39.4,8.5,38.8L8.5,38.8z M16,27.5
	v-1.7h-4v1.7H16z M16,30.7V29h-4v1.8L16,30.7z M16,34v-1.9h-4V34H16z M15.7,37.7l-0.4-0.4c-0.1-0.1-0.2-0.3-0.3-0.4
	c-0.1-0.1-0.1-0.2-0.1-0.3c0-0.5,0.3-0.7,0.8-0.7c0.2,0,0.6,0.2,1.2,0.8s0.8,0.9,0.8,1.2c0,0.4-0.2,0.8-0.6,0.8c-0.1,0-0.1,0-0.2,0
	C16.6,38.6,16.2,38.3,15.7,37.7L15.7,37.7z M17,39.4c0-0.4,0.2-0.8,0.6-1c0.9-0.7,1.5-1.7,1.7-2.8c0.4-2.6,0.5-5.2,0.5-7.8v-3.5
	c0-0.5,0.1-1,0.5-1.4c0.4-0.4,0.9-0.5,1.4-0.5h3.1c0.5-0.1,1.1,0.1,1.5,0.4c0.3,0.4,0.5,0.9,0.4,1.4v13.8c0.1,0.6-0.1,1.2-0.5,1.6
	c-0.4,0.4-1,0.6-1.5,0.5h-1.1c-0.4,0.1-0.8-0.2-0.9-0.7c0-0.1,0-0.2,0-0.2c0-0.6,0.3-0.9,0.9-0.9h0.9c0.3,0,0.6-0.2,0.6-0.5
	c0,0,0-0.1,0-0.1v-4.2h-3.8c-0.1,1.3-0.3,2.6-0.8,3.9c-0.3,0.7-0.7,1.5-1.2,2.1c-0.3,0.4-0.8,0.7-1.3,0.7c-0.4,0.1-0.8-0.2-0.9-0.6
	C17,39.6,17,39.5,17,39.4z M25,32.1v-3.3h-3.7l-0.1,3.3H25z M25,24.7c0-0.5-0.2-0.7-0.7-0.7h-2.3c-0.2,0-0.3,0.1-0.5,0.2
	c-0.1,0.1-0.2,0.3-0.2,0.4v1.9v0.7H25V24.7z"/>
<path class="st0" d="M13.7,54.5l-0.9-1.9v9.1c0,0.5-0.2,0.8-0.7,0.8s-0.7-0.3-0.7-0.8v-8.6c-0.7,2.9-1.4,4.4-2.1,4.4
	c-0.2,0-0.3-0.1-0.5-0.2c-0.1-0.1-0.2-0.3-0.2-0.5c0-0.3,0.1-0.6,0.3-0.9c1.2-2,1.9-4.2,2.3-6.5H9.6c-0.6,0-0.9-0.3-0.9-0.8
	S9,48,9.6,48h1.7v-3.4c0-0.5,0.2-0.8,0.7-0.8s0.7,0.3,0.7,0.8V48H14c0.6,0,1,0.3,1,0.8s-0.3,0.8-1,0.8h-1.2v2.7
	c0.1-0.2,0.3-0.3,0.5-0.3c0.1,0,0.3,0.1,0.5,0.3c0.3,0.3,0.5,0.6,0.7,0.9c0.4,0.5,0.6,1.1,0.8,1.7c0,0.5-0.2,0.7-0.6,0.7
	C14.3,55.5,14,55.1,13.7,54.5z M19.9,60.5c-0.1,0.1-0.3,0.2-0.5,0.2c-0.2,0-0.4-0.1-0.6-0.3c-0.3-0.2-0.7-0.5-1.3-1
	c-0.4,0.7-0.9,1.4-1.5,1.9c-0.6,0.5-1.1,0.8-1.3,0.8c-0.2,0-0.4,0-0.6-0.2c-0.1-0.1-0.2-0.3-0.2-0.5c0-0.2,0-0.3,0.1-0.5
	c0.1-0.1,0.3-0.3,0.4-0.4c1.2-0.8,2.1-2,2.5-3.5c-0.4,0-0.8-0.2-1.1-0.4c-0.3-0.3-0.4-0.7-0.4-1.1v-2.3c-0.1-0.8,0.4-1.5,1.2-1.6
	c0.1,0,0.3,0,0.4,0h1.7c0.8-0.1,1.5,0.4,1.6,1.2c0,0.1,0,0.2,0,0.4v2.3c0.1,0.8-0.4,1.4-1.2,1.5c-0.1,0-0.3,0-0.4,0h-0.4l-0.3,1.1
	c1.3,0.7,2,1.3,2,1.7C20.1,60.2,20.1,60.4,19.9,60.5L19.9,60.5z M27.3,50.1c0,0.6-0.3,0.9-0.9,0.9c-0.4,0-0.7-0.1-1-0.3
	c-0.5-0.3-1-0.6-1.5-1c0,0.1,0,0.2,0,0.2c0,0.5-0.3,0.7-0.9,0.7h-4.8c-0.6,0-0.9-0.2-0.9-0.7c0-0.1,0-0.2,0-0.3l0,0
	c-1.2,1.1-1.9,1.7-2.3,1.7c-0.4,0.1-0.8-0.2-0.8-0.6c0-0.1,0-0.1,0-0.2c0-0.2,0.1-0.3,0.2-0.5c0.2-0.2,0.4-0.4,0.6-0.5
	c1.9-1.3,3.4-3.1,4.4-5.2c0.3-0.5,0.6-0.8,0.9-0.8c0.2,0,0.4,0.1,0.6,0.2c0.1,0.1,0.2,0.3,0.2,0.5c0,0.1-0.1,0.3-0.1,0.4
	c1.4,2,3.4,3.6,5.6,4.6C27.1,49.3,27.3,49.7,27.3,50.1L27.3,50.1z M17,55.3c0,0.3,0.1,0.5,0.4,0.5h1c0.1,0,0.3,0,0.4-0.1
	c0.1-0.1,0.1-0.3,0.1-0.4v-1.6c0-0.1,0-0.3-0.1-0.4c-0.1-0.1-0.2-0.1-0.4-0.1h-1.1c-0.3,0-0.4,0.2-0.4,0.5L17,55.3z M23.4,49.3
	c-1.2-0.9-2.2-2-3-3.3c-0.7,1.2-1.6,2.3-2.5,3.3c0.1,0,0.3-0.1,0.4-0.1h4.8L23.4,49.3z M27,61.4c0.1,0.4-0.2,0.8-0.6,0.8
	c-0.1,0-0.1,0-0.2,0c-0.3,0-0.6-0.2-0.8-0.5c-0.7-0.7-1.4-1.4-2.2-2c-0.4,0.6-0.9,1.2-1.5,1.8c-0.4,0.4-0.9,0.7-1.4,0.9
	c-0.2,0-0.4-0.1-0.6-0.2c-0.1-0.1-0.2-0.3-0.2-0.5c0-0.2,0.1-0.4,0.2-0.5c0.2-0.2,0.4-0.4,0.6-0.5c1.2-0.8,2.1-2,2.4-3.4
	c-0.4,0-0.9-0.1-1.2-0.3c-0.3-0.3-0.4-0.7-0.4-1.1v-2.4c0-0.4,0.1-0.8,0.4-1.2c0.3-0.3,0.8-0.4,1.2-0.4h2c0.8-0.1,1.4,0.4,1.5,1.2
	c0,0.1,0,0.3,0,0.4v2.2c0.1,0.7-0.4,1.4-1.1,1.5c-0.1,0-0.3,0-0.4,0h-0.5c-0.1,0.4-0.2,0.9-0.4,1.3l0.7,0.5
	C26.2,60.1,27,60.9,27,61.4z M22.6,55.6c0.1,0.1,0.2,0.1,0.3,0.2h1.2c0.3,0,0.5-0.1,0.5-0.4c0,0,0-0.1,0-0.1v-1.6
	c0-0.3-0.2-0.5-0.4-0.5c0,0-0.1,0-0.1,0h-1.2c-0.2,0.1-0.4,0.3-0.4,0.5v1.6C22.5,55.4,22.5,55.5,22.6,55.6z"/>
<path class="st0" d="M9.5,73.1c-0.4-0.2-0.6-0.4-0.6-0.7c0-0.2,0.1-0.5,0.2-0.7c0.2-0.2,0.4-0.2,0.7-0.2c0.7,0.1,1.3,0.3,1.8,0.7
	c0.3,0.1,0.6,0.5,0.6,0.8c0,0.2-0.1,0.5-0.2,0.7c-0.2,0.2-0.4,0.2-0.6,0.2C10.7,73.8,10.1,73.5,9.5,73.1z M9,83.3
	c0.1-0.6,0.3-1.2,0.6-1.7c0.3-0.9,0.8-2.4,1.4-4.4c0.1-0.4,0.4-0.7,0.8-0.7c0.6,0,0.8,0.3,0.8,0.8c-0.2,1-0.4,2.1-0.8,3.1
	c-0.5,1.6-0.9,2.7-1,3.2c-0.1,0.2-0.2,0.3-0.3,0.4c-0.1,0.1-0.3,0.2-0.5,0.2C9.3,84.1,9,83.8,9,83.3z M11.6,68.5L10.7,68
	c-0.2-0.1-0.4-0.2-0.6-0.4c-0.1-0.1-0.2-0.3-0.2-0.4c-0.1-0.4,0.2-0.8,0.6-0.8c0.1,0,0.1,0,0.2,0c0.6,0.1,1.1,0.3,1.6,0.6
	c0.5,0.2,0.8,0.6,0.8,0.9c0,0.2-0.1,0.5-0.3,0.6c-0.1,0.1-0.3,0.2-0.5,0.3C12.1,68.7,11.8,68.6,11.6,68.5z M12.6,83.2
	c0-0.2,0.1-0.5,0.3-0.7c0.4-0.5,0.9-1.1,1.2-1.6c0.4-0.6,0.7-0.9,1.1-0.9c0.2,0,0.4,0.1,0.6,0.2c0.1,0.1,0.2,0.3,0.2,0.5
	c-0.2,0.7-0.6,1.3-1,1.8c-0.7,1-1.2,1.5-1.6,1.5S12.6,83.8,12.6,83.2z M13.9,78.1v-9.9c-0.1-0.8,0.4-1.5,1.2-1.6c0.1,0,0.3,0,0.4,0
	h2.7c0.8-0.1,1.5,0.4,1.7,1.2c0,0.1,0,0.3,0,0.4v9.9c0.1,0.8-0.5,1.5-1.3,1.6c-0.1,0-0.3,0-0.4,0h-2.7c-0.8,0.1-1.5-0.4-1.6-1.2
	C13.8,78.4,13.8,78.2,13.9,78.1z M18.3,68.6c0-0.4-0.2-0.6-0.6-0.6H16c-0.3,0-0.6,0.2-0.6,0.5c0,0,0,0.1,0,0.1v1.8h3L18.3,68.6z
	 M18.3,74.2v-2.4h-3v2.4H18.3z M18.3,77.7v-2h-3v2c0,0.4,0.2,0.6,0.6,0.6h1.8C18.1,78.3,18.3,78.1,18.3,77.7z M19,83l-1-1.6
	l-0.2-0.3c-0.1-0.1-0.1-0.2-0.1-0.3c0-0.2,0.1-0.4,0.2-0.5c0.2-0.1,0.3-0.2,0.5-0.2c0.3,0,0.8,0.4,1.4,1.2c0.4,0.5,0.7,1,0.9,1.6
	c0.1,0.4-0.2,0.8-0.6,0.8c-0.1,0-0.1,0-0.2,0C19.6,83.7,19.3,83.4,19,83z M21.3,79.6V68.4c0-0.5,0.2-0.8,0.8-0.8s0.8,0.3,0.8,0.8
	v11.2c0,0.5-0.2,0.8-0.8,0.8S21.3,80.1,21.3,79.6L21.3,79.6z M22.4,83.5c-0.1-0.4,0.2-0.8,0.6-0.8c0.1,0,0.1,0,0.2,0h0.8
	c0.5,0,0.8-0.3,0.9-0.9V67c0-0.7,0.3-1,0.8-1s0.8,0.3,0.8,1v15.2c0.1,1.5-0.6,2.2-2.2,2.2h-1.1c-0.4,0.1-0.8-0.2-0.9-0.6
	C22.4,83.6,22.4,83.6,22.4,83.5L22.4,83.5z"/>
<path class="st0" d="M14.6,94.9v2.3c0.1-0.3,0.3-0.4,0.6-0.4c0.2,0.1,0.4,0.2,0.5,0.4c0.4,0.3,0.7,0.6,1,1c0.4,0.5,0.8,0.9,1,1.2
	c0.2,0.2,0.3,0.4,0.3,0.7c0,0.4-0.2,0.7-0.6,0.8c-0.1,0-0.1,0-0.2,0c-0.3,0-0.6-0.3-0.9-0.8c-0.4-0.6-0.8-1.1-1.3-1.7
	c-0.2-0.2-0.3-0.4-0.4-0.6v7.8c0,0.7-0.3,1-0.8,1s-0.8-0.3-0.8-1v-7.8c-0.5,1.4-1.1,2.7-1.9,3.8c-0.8,1.1-1.3,1.7-1.7,1.7
	c-0.6,0-0.8-0.3-0.8-0.9c0.1-0.4,0.3-0.7,0.5-0.9c1.6-1.9,2.9-4.1,3.8-6.5H9.5c-0.6,0-0.9-0.3-0.9-0.8s0.3-0.8,0.9-0.8H13v-3
	c-1.1,0.1-2.2,0.2-3.3,0.3c-0.2,0-0.4,0-0.6-0.2c-0.1-0.2-0.2-0.4-0.2-0.6c0-0.5,0.4-0.7,1.1-0.8c2.1-0.1,4.1-0.4,6.1-1l0.9-0.2
	c0.4-0.1,0.8,0.2,0.9,0.6c0,0.1,0,0.1,0,0.2c0,0.4-0.2,0.7-0.6,0.8c-0.9,0.3-1.7,0.4-2.6,0.6v3.2h2.5c0.6,0,0.9,0.3,0.9,0.8
	s-0.3,0.8-0.9,0.8L14.6,94.9z M26.5,92.1v11c0.1,0.6-0.1,1.2-0.5,1.7c-0.4,0.4-1,0.5-1.6,0.4h-3.9c-0.6,0.1-1.2-0.1-1.6-0.5
	c-0.4-0.4-0.5-1-0.5-1.6v-11c-0.1-1.5,0.6-2.2,2.1-2.1h3.9C25.9,89.9,26.6,90.6,26.5,92.1z M24.8,92.7c0.1-0.4-0.2-0.8-0.7-0.9
	c-0.1,0-0.2,0-0.2,0h-2.8c-0.6,0-0.9,0.3-0.9,0.9v9.9c-0.1,0.4,0.3,0.9,0.7,0.9c0.1,0,0.1,0,0.2,0h2.8c0.4,0.1,0.9-0.3,0.9-0.7
	c0-0.1,0-0.2,0-0.2V92.7z"/>
<path class="st0" d="M17.5,117.9c0,0.2,0,0.4-0.1,0.6c-0.1,0.5-0.3,1-0.5,1.4c-0.2,0.5-0.5,1.1-0.8,1.6c-0.1,0.2-0.3,0.4-0.6,0.4
	c-0.1,0-0.3,0-0.4-0.1c-0.2-0.1-0.4-0.3-0.4-0.5c0-0.1,0-0.3,0.1-0.4c0.3-0.7,0.6-1.4,0.9-2.1c0-0.1,0-0.1,0-0.2
	c0-0.1-0.1-0.2-0.3-0.2h-1.7v7.9c0,0.5-0.1,1.1-0.4,1.5c-0.4,0.4-0.9,0.5-1.4,0.5h-1.4c-0.2,0-0.4-0.1-0.6-0.2
	c-0.2-0.2-0.2-0.4-0.2-0.6c-0.1-0.4,0.2-0.8,0.6-0.8c0.1,0,0.1,0,0.2,0h1.3c0.2,0,0.5-0.1,0.5-0.4c0,0,0-0.1,0-0.1v-7.7H9.6
	c-0.2,0-0.5,0-0.7-0.2c-0.1-0.1-0.2-0.4-0.2-0.6c0-0.2,0.1-0.4,0.2-0.6c0.2-0.1,0.4-0.2,0.7-0.2h3.6c-0.4-0.3-1-0.9-1.9-1.5
	l-0.8-0.7c-0.2-0.1-0.3-0.3-0.3-0.6c0-0.4,0.3-0.6,0.7-0.7c0.1,0,0.3,0,0.4,0.1c0.4,0.2,1,0.6,1.7,1.2c0.7-0.7,1.3-1.4,1.8-2.2
	c0-0.1,0.1-0.1,0.1-0.2c0-0.1,0-0.1-0.1-0.2c-0.1,0-0.1-0.1-0.2-0.1H9.9c-0.6,0-0.9-0.2-0.9-0.7s0.3-0.7,0.9-0.7h5.5
	c0.4,0,0.7,0.1,1,0.3c0.2,0.2,0.4,0.4,0.4,0.7c0,0.3-0.1,0.5-0.2,0.8c-0.3,0.6-0.7,1.1-1.2,1.7c-0.4,0.5-0.9,1-1.4,1.4l0.4,0.4
	c0.2,0.1,0.2,0.3,0.2,0.5c0,0.2-0.1,0.4-0.2,0.6h1.9C17.1,116.9,17.5,117.2,17.5,117.9z M21.2,125.6c0,0.4-0.4,0.8-1.1,1.3
	c-0.6,0.4-1.2,0.8-1.9,1.1c-0.4,0.2-0.8,0.3-1.3,0.4c-0.5,0-0.7-0.3-0.7-0.9c0-0.2,0.1-0.3,0.2-0.4c0.2-0.2,0.4-0.3,0.7-0.4
	c0.7-0.3,1.3-0.6,1.9-1c0.6-0.4,1-0.7,1.1-0.7c0.1,0,0.2-0.1,0.3-0.1C21,124.9,21.2,125.1,21.2,125.6z M17.4,111.4
	c0-0.5,0.3-0.7,0.8-0.7h8c0.5,0,0.8,0.2,0.8,0.7s-0.3,0.7-0.8,0.7h-3.2l-0.4,1.9h2.3c0.8-0.1,1.5,0.5,1.5,1.3c0,0.1,0,0.2,0,0.3v7.4
	c0.1,0.8-0.5,1.4-1.2,1.5c-0.1,0-0.2,0-0.3,0h-5.3c-0.8,0.1-1.4-0.5-1.5-1.2c0-0.1,0-0.2,0-0.3v-7.4c-0.1-0.8,0.5-1.5,1.3-1.5
	c0.1,0,0.2,0,0.3,0h1.5l0.3-1.9h-3.1c-0.4,0.1-0.7-0.2-0.8-0.6C17.4,111.5,17.4,111.5,17.4,111.4z M20,115.4c-0.2,0-0.3,0.1-0.5,0.2
	c-0.1,0.1-0.2,0.3-0.2,0.5v1h5.4v-1c0-0.3-0.2-0.6-0.5-0.7c-0.1,0-0.1,0-0.2,0L20,115.4z M24.8,120v-1.6h-5.4v1.6H24.8z M24.8,121.4
	h-5.4v1.2c0,0.3,0.2,0.6,0.5,0.6c0.1,0,0.1,0,0.2,0h4.1c0.3,0,0.6-0.2,0.7-0.5c0-0.1,0-0.1,0-0.2L24.8,121.4z M27,127
	c0.1,0.1,0.2,0.3,0.2,0.5c0,0.2-0.1,0.5-0.2,0.6c-0.2,0.1-0.4,0.2-0.6,0.2c-0.7-0.2-1.4-0.6-2-1.1c-1-0.8-1.6-1.3-1.6-1.6
	s0.3-0.7,0.8-0.7c0.3,0,0.5,0.1,0.6,0.3c0.6,0.6,1.3,1,2,1.4C26.6,126.6,26.8,126.8,27,127z"/>
<path class="st0" d="M12.8,146.4c-0.7,0-1.1-0.3-1.1-0.9s0.3-0.8,0.9-0.8c1.1-0.1,1.6-0.6,1.6-1.6c-0.1-1.2-0.6-2.3-1.4-3.2
	c-0.2-0.2-0.3-0.5-0.4-0.8c0.2-0.8,0.5-1.5,0.8-2.2c0.4-0.7,0.6-1.5,0.8-2.3c0-0.3-0.2-0.4-0.6-0.4H12c-0.6,0-0.8,0.3-0.8,0.8v14.6
	c0,0.6-0.3,0.9-0.8,0.9s-0.8-0.3-0.8-0.9v-15.1c0-0.5,0.1-1,0.4-1.4c0.4-0.3,0.9-0.5,1.4-0.4h2.9c1.1,0,1.7,0.4,1.7,1.1
	c-0.2,0.8-0.4,1.5-0.8,2.2l-0.9,2c-0.2,0.3-0.3,0.7-0.4,1c0,0.3,0.2,0.6,0.4,0.8c0.9,1,1.4,2.3,1.4,3.6
	C15.8,145.4,14.8,146.4,12.8,146.4z M27.1,135.2c0.2,0.2,0.2,0.4,0.2,0.6c0,0.2-0.1,0.4-0.2,0.6c-0.2,0.1-0.4,0.2-0.7,0.2h-6.3
	c0,0.6,0,1.2,0,1.9c0,0.3,0,0.7,0,1.1h4.4c0.5,0,1,0.1,1.4,0.5c0.3,0.4,0.5,0.9,0.5,1.5c0,0.9-0.1,2.3-0.2,4
	c-0.1,1.2-0.4,2.4-0.8,3.4c-0.4,0.7-1.2,1.1-2,1.1h-0.6c-0.4,0-0.8,0-1.1,0c-0.2,0-0.5-0.1-0.7-0.2c-0.2-0.1-0.3-0.3-0.3-0.6
	c0-0.2,0.1-0.4,0.3-0.6c0.2-0.2,0.5-0.2,0.8-0.2c0.6,0,1.1,0,1.5-0.1c0.6,0,1-0.6,1.1-1.6c0.2-1.6,0.4-3.2,0.4-4.8
	c0-0.3-0.1-0.5-0.2-0.7c-0.2-0.2-0.4-0.3-0.7-0.3h-3.8c-0.1,1.6-0.4,3.2-1,4.7c-0.4,1.3-1.2,2.4-2.2,3.2c-0.6,0.6-1.4,1.1-2.3,1.3
	c-0.5,0-0.8-0.3-0.8-0.9c0-0.3,0.2-0.5,0.6-0.8c1.5-0.8,2.7-2,3.3-3.6c0.6-1.5,0.9-4.3,0.9-8.4h-2c-0.4,0.1-0.7-0.2-0.8-0.5
	c0-0.1,0-0.2,0-0.2c-0.1-0.3,0.1-0.7,0.5-0.8c0.1,0,0.2,0,0.3,0H20v-2.4c0-0.6,0.3-0.9,0.8-0.9s0.8,0.3,0.8,0.9v2.4h4.7
	C26.6,135,26.9,135.1,27.1,135.2z"/>
</svg>
