<?xml version="1.0" encoding="utf-8"?>
<!-- Generator: Adobe Illustrator 25.1.0, SVG Export Plug-In . SVG Version: 6.00 Build 0)  -->
<svg version="1.1" id="Layer_1" xmlns="http://www.w3.org/2000/svg" xmlns:xlink="http://www.w3.org/1999/xlink" x="0px" y="0px"
	 viewBox="0 0 69 215.7" style="enable-background:new 0 0 69 215.7;" xml:space="preserve">
<style type="text/css">
	.st0{fill:#22824D;}
</style>
<g>
	<circle class="st0" cx="67.7" cy="2.7" r="1.3"/>
	<circle class="st0" cx="67.7" cy="8.7" r="1.3"/>
	<circle class="st0" cx="67.7" cy="14.8" r="1.3"/>
	<circle class="st0" cx="67.7" cy="20.8" r="1.3"/>
	<circle class="st0" cx="67.7" cy="26.9" r="1.3"/>
	<circle class="st0" cx="67.7" cy="32.9" r="1.3"/>
	<circle class="st0" cx="67.7" cy="39" r="1.3"/>
	<circle class="st0" cx="67.7" cy="45" r="1.3"/>
	<circle class="st0" cx="67.7" cy="51.1" r="1.3"/>
	<circle class="st0" cx="67.7" cy="57.1" r="1.3"/>
	<circle class="st0" cx="67.7" cy="63.2" r="1.3"/>
	<circle class="st0" cx="67.7" cy="69.2" r="1.3"/>
	<circle class="st0" cx="67.7" cy="75.3" r="1.3"/>
	<circle class="st0" cx="67.7" cy="81.3" r="1.3"/>
	<circle class="st0" cx="67.7" cy="87.4" r="1.3"/>
	<circle class="st0" cx="67.7" cy="93.4" r="1.3"/>
	<circle class="st0" cx="67.7" cy="99.5" r="1.3"/>
	<circle class="st0" cx="67.7" cy="105.5" r="1.3"/>
	<circle class="st0" cx="67.7" cy="111.6" r="1.3"/>
	<circle class="st0" cx="67.7" cy="117.6" r="1.3"/>
	<circle class="st0" cx="67.7" cy="123.7" r="1.3"/>
	<circle class="st0" cx="67.7" cy="129.7" r="1.3"/>
	<circle class="st0" cx="67.7" cy="135.8" r="1.3"/>
	<circle class="st0" cx="67.7" cy="141.8" r="1.3"/>
	<circle class="st0" cx="67.7" cy="147.9" r="1.3"/>
	<circle class="st0" cx="67.7" cy="153.9" r="1.3"/>
	<circle class="st0" cx="67.7" cy="160" r="1.3"/>
	<circle class="st0" cx="67.7" cy="166" r="1.3"/>
	<circle class="st0" cx="67.7" cy="172.1" r="1.3"/>
	<circle class="st0" cx="67.7" cy="178.1" r="1.3"/>
	<circle class="st0" cx="67.7" cy="184.2" r="1.3"/>
	<circle class="st0" cx="67.7" cy="190.2" r="1.3"/>
	<circle class="st0" cx="67.7" cy="196.3" r="1.3"/>
	<circle class="st0" cx="67.7" cy="202.3" r="1.3"/>
	<circle class="st0" cx="67.7" cy="208.4" r="1.3"/>
	<circle class="st0" cx="67.7" cy="214.4" r="1.3"/>
</g>
<g>
	<circle class="st0" cx="34.5" cy="2.7" r="1.3"/>
	<circle class="st0" cx="34.5" cy="8.7" r="1.3"/>
	<circle class="st0" cx="34.5" cy="14.8" r="1.3"/>
	<circle class="st0" cx="34.5" cy="20.8" r="1.3"/>
	<circle class="st0" cx="34.5" cy="26.9" r="1.3"/>
	<circle class="st0" cx="34.5" cy="32.9" r="1.3"/>
	<circle class="st0" cx="34.5" cy="39" r="1.3"/>
	<circle class="st0" cx="34.5" cy="45" r="1.3"/>
	<circle class="st0" cx="34.5" cy="51.1" r="1.3"/>
	<circle class="st0" cx="34.5" cy="57.1" r="1.3"/>
	<circle class="st0" cx="34.5" cy="63.2" r="1.3"/>
	<circle class="st0" cx="34.5" cy="69.2" r="1.3"/>
	<circle class="st0" cx="34.5" cy="75.3" r="1.3"/>
	<circle class="st0" cx="34.5" cy="81.3" r="1.3"/>
	<circle class="st0" cx="34.5" cy="87.4" r="1.3"/>
	<circle class="st0" cx="34.5" cy="93.4" r="1.3"/>
	<circle class="st0" cx="34.5" cy="99.5" r="1.3"/>
	<circle class="st0" cx="34.5" cy="105.5" r="1.3"/>
	<circle class="st0" cx="34.5" cy="111.6" r="1.3"/>
	<circle class="st0" cx="34.5" cy="117.6" r="1.3"/>
	<circle class="st0" cx="34.5" cy="123.7" r="1.3"/>
	<circle class="st0" cx="34.5" cy="129.7" r="1.3"/>
	<circle class="st0" cx="34.5" cy="135.8" r="1.3"/>
	<circle class="st0" cx="34.5" cy="141.8" r="1.3"/>
	<circle class="st0" cx="34.5" cy="147.9" r="1.3"/>
	<circle class="st0" cx="34.5" cy="153.9" r="1.3"/>
	<circle class="st0" cx="34.5" cy="160" r="1.3"/>
	<circle class="st0" cx="34.5" cy="166" r="1.3"/>
	<circle class="st0" cx="34.5" cy="172.1" r="1.3"/>
	<circle class="st0" cx="34.5" cy="178.1" r="1.3"/>
	<circle class="st0" cx="34.5" cy="184.2" r="1.3"/>
	<circle class="st0" cx="34.5" cy="190.2" r="1.3"/>
	<circle class="st0" cx="34.5" cy="196.3" r="1.3"/>
	<circle class="st0" cx="34.5" cy="202.3" r="1.3"/>
	<circle class="st0" cx="34.5" cy="208.4" r="1.3"/>
	<circle class="st0" cx="34.5" cy="214.4" r="1.3"/>
</g>
<g>
	<circle class="st0" cx="1.3" cy="2.7" r="1.3"/>
	<circle class="st0" cx="1.3" cy="8.7" r="1.3"/>
	<circle class="st0" cx="1.3" cy="14.8" r="1.3"/>
	<circle class="st0" cx="1.3" cy="20.8" r="1.3"/>
	<circle class="st0" cx="1.3" cy="26.9" r="1.3"/>
	<circle class="st0" cx="1.3" cy="32.9" r="1.3"/>
	<circle class="st0" cx="1.3" cy="39" r="1.3"/>
	<circle class="st0" cx="1.3" cy="45" r="1.3"/>
	<circle class="st0" cx="1.3" cy="51.1" r="1.3"/>
	<circle class="st0" cx="1.3" cy="57.1" r="1.3"/>
	<circle class="st0" cx="1.3" cy="63.2" r="1.3"/>
	<circle class="st0" cx="1.3" cy="69.2" r="1.3"/>
	<circle class="st0" cx="1.3" cy="75.3" r="1.3"/>
	<circle class="st0" cx="1.3" cy="81.3" r="1.3"/>
	<circle class="st0" cx="1.3" cy="87.4" r="1.3"/>
	<circle class="st0" cx="1.3" cy="93.4" r="1.3"/>
	<circle class="st0" cx="1.3" cy="99.5" r="1.3"/>
	<circle class="st0" cx="1.3" cy="105.5" r="1.3"/>
	<circle class="st0" cx="1.3" cy="111.6" r="1.3"/>
	<circle class="st0" cx="1.3" cy="117.6" r="1.3"/>
	<circle class="st0" cx="1.3" cy="123.7" r="1.3"/>
	<circle class="st0" cx="1.3" cy="129.7" r="1.3"/>
	<circle class="st0" cx="1.3" cy="135.8" r="1.3"/>
	<circle class="st0" cx="1.3" cy="141.8" r="1.3"/>
	<circle class="st0" cx="1.3" cy="147.9" r="1.3"/>
	<circle class="st0" cx="1.3" cy="153.9" r="1.3"/>
	<circle class="st0" cx="1.3" cy="160" r="1.3"/>
	<circle class="st0" cx="1.3" cy="166" r="1.3"/>
	<circle class="st0" cx="1.3" cy="172.1" r="1.3"/>
	<circle class="st0" cx="1.3" cy="178.1" r="1.3"/>
	<circle class="st0" cx="1.3" cy="184.2" r="1.3"/>
	<circle class="st0" cx="1.3" cy="190.2" r="1.3"/>
	<circle class="st0" cx="1.3" cy="196.3" r="1.3"/>
	<circle class="st0" cx="1.3" cy="202.3" r="1.3"/>
	<circle class="st0" cx="1.3" cy="208.4" r="1.3"/>
	<circle class="st0" cx="1.3" cy="214.4" r="1.3"/>
</g>
</svg>
