<?xml version="1.0" encoding="utf-8"?>
<!-- Generator: Adobe Illustrator 25.1.0, SVG Export Plug-In . SVG Version: 6.00 Build 0)  -->
<svg version="1.1" id="Layer_1" xmlns="http://www.w3.org/2000/svg" xmlns:xlink="http://www.w3.org/1999/xlink" x="0px" y="0px"
	 viewBox="0 0 110 250" style="enable-background:new 0 0 110 250;" xml:space="preserve">
<style type="text/css">
	.st0{fill:url(#SVGID_1_);}
	.st1{fill:url(#SVGID_2_);}
	.st2{fill:url(#SVGID_3_);}
	.st3{fill:url(#SVGID_4_);}
	.st4{fill:url(#SVGID_5_);}
	.st5{fill:url(#SVGID_6_);}
	.st6{fill:url(#SVGID_7_);}
	.st7{fill:url(#SVGID_8_);}
	.st8{fill:url(#SVGID_9_);}
	.st9{fill:url(#SVGID_10_);}
	.st10{fill:url(#SVGID_11_);}
	.st11{fill:url(#SVGID_12_);}
	.st12{fill:url(#SVGID_13_);}
	.st13{fill:url(#SVGID_14_);}
	.st14{fill:url(#SVGID_15_);}
	.st15{fill:url(#SVGID_16_);}
	.st16{fill:url(#SVGID_17_);}
	.st17{fill:url(#SVGID_18_);}
	.st18{fill:url(#SVGID_19_);}
</style>
<radialGradient id="SVGID_1_" cx="74.9268" cy="26.0977" r="8.0244" gradientUnits="userSpaceOnUse">
	<stop  offset="2.327833e-02" style="stop-color:#3F9264"/>
	<stop  offset="1" style="stop-color:#22824D"/>
</radialGradient>
<path class="st0" d="M69.1,33.3v-8.2L69,25.3c-0.3,0.6-0.6,1.1-0.9,1.5s-0.5,0.5-0.6,0.5c-0.4,0-0.6-0.3-0.6-0.8
	c0-0.2,0.1-0.4,0.2-0.6c1.4-2.2,2.4-4.5,3.2-6.9c0.1-0.3,0.2-0.5,0.3-0.7s0.3-0.2,0.5-0.2c0.6,0,0.8,0.2,0.8,0.7
	c0,0.2-0.5,1.4-1.4,3.5v11c0,0.6-0.2,0.8-0.7,0.8C69.4,34.1,69.1,33.8,69.1,33.3z M70.9,33.2c0-0.2,0.1-0.4,0.2-0.5
	c1.4-1.3,2.1-3.3,2.1-5.9c0-0.5,0.2-0.7,0.7-0.7c0.5,0,0.7,0.2,0.7,0.7c0,0.8-0.1,1.7-0.2,2.7c0.6,1,1.4,1.8,2.4,2.3v-6.6h-2.5
	c-0.6,0-1-0.1-1.3-0.4s-0.4-0.7-0.3-1.2v-2.9c-0.1-1.2,0.5-1.7,1.6-1.6h6.3c1.2-0.1,1.7,0.5,1.6,1.6v2.9c0,0.6-0.1,1-0.4,1.3
	s-0.7,0.4-1.2,0.3h-2.3v2.5h3.2c0.6,0,0.8,0.2,0.8,0.6c0,0.4-0.3,0.6-0.8,0.6h-3.2v3.3c0.4,0.1,1,0.1,1.9,0.1l1.6,0l0.3,0
	c0.3,0,0.5,0,0.6,0.2S83,32.8,83,33c0,0.5-0.3,0.8-1,0.8c-2.4,0-4.1-0.2-5.1-0.5c-1.1-0.4-2.1-1.2-2.9-2.5c-0.4,0.9-0.8,1.6-1.2,2.2
	c-0.3,0.3-0.5,0.6-0.7,0.7s-0.3,0.2-0.5,0.2C71.2,33.9,70.9,33.7,70.9,33.2z M80.8,23.2V21c0-0.5-0.2-0.7-0.7-0.7h-5.3
	c-0.5,0-0.7,0.2-0.7,0.7v2.1c0,0.5,0.2,0.7,0.7,0.7h5.3C80.5,23.9,80.8,23.7,80.8,23.2z"/>
<radialGradient id="SVGID_2_" cx="74.9355" cy="43.8516" r="7.8892" gradientUnits="userSpaceOnUse">
	<stop  offset="2.327833e-02" style="stop-color:#3F9264"/>
	<stop  offset="1" style="stop-color:#22824D"/>
</radialGradient>
<path class="st1" d="M83,50.9c0,0.5-0.3,0.7-1,0.7c-0.9,0-1.8,0-2.7,0s-1.8,0-2.7,0c-2.2,0-3.6-0.1-4.5-0.4
	c-0.4-0.1-0.8-0.3-1.1-0.5S70.3,50.3,70,50c-0.5,0.5-1,0.8-1.4,1.1s-0.7,0.4-0.9,0.4c-0.2,0-0.4-0.1-0.5-0.2s-0.2-0.3-0.2-0.6
	c0-0.4,0.3-0.7,0.8-0.9c0,0,0.2-0.1,0.5-0.2s0.6-0.3,1-0.5v-3.2c0-0.2,0-0.3-0.1-0.4s-0.2-0.1-0.4-0.1h-1c-0.2,0-0.4-0.1-0.5-0.2
	s-0.2-0.3-0.2-0.5c0-0.2,0.1-0.4,0.2-0.5s0.3-0.2,0.5-0.2h1.5c0.5,0,0.9,0.1,1.1,0.3s0.3,0.6,0.3,1v3.6l0.5,0.5
	c0.8,0.6,2.5,0.9,5,0.9c1,0,1.9,0,2.6,0s1.4,0,1.9,0c0.7,0,1.2,0,1.5,0h0.2C82.7,50.2,83,50.4,83,50.9z M67,40.5
	c0-0.2,0.1-0.4,0.2-0.5s0.3-0.2,0.5-0.2c0.2,0,0.7,0.2,1.5,0.5c0.8,0.3,1.1,0.6,1.1,1c0,0.5-0.2,0.7-0.7,0.7c-0.1,0-0.3-0.1-0.6-0.2
	l-1.4-0.6C67.2,41,67,40.8,67,40.5z M67.7,37.1c0-0.4,0.2-0.7,0.7-0.7c0.2,0,0.6,0.2,1.4,0.5c0.4,0.2,0.6,0.3,0.8,0.5
	s0.3,0.4,0.3,0.5c0,0.5-0.2,0.7-0.7,0.7c-0.1,0-0.4-0.1-0.7-0.3c-0.6-0.3-1-0.5-1.2-0.6C67.9,37.6,67.7,37.4,67.7,37.1z M70.4,41.4
	c0-0.2,0.2-0.5,0.6-1c0.9-1.1,1.6-2.3,2.1-3.6c0.2-0.5,0.4-0.7,0.7-0.7c0.2,0,0.4,0,0.5,0.1s0.2,0.2,0.2,0.4c0,0.3-0.3,0.9-0.8,1.8
	H77l0.7-1.8c0.1-0.2,0.1-0.3,0.3-0.3s0.3-0.1,0.4-0.1c0.2,0,0.4,0.1,0.5,0.2s0.2,0.3,0.2,0.5s-0.3,0.8-0.8,1.5h3.3
	c0.5,0,0.7,0.2,0.7,0.6c0,0.2-0.1,0.4-0.2,0.5s-0.3,0.1-0.5,0.1h-3.2v1.8h2.9c0.4,0,0.7,0.2,0.7,0.6c0,0.4-0.2,0.6-0.7,0.6h-2.9v1.8
	h2.9c0.4,0,0.7,0.2,0.7,0.6s-0.2,0.6-0.7,0.6h-2.9v1.8h3.4c0.4,0,0.7,0.2,0.7,0.6s-0.2,0.6-0.7,0.6h-8c-0.6,0-1-0.1-1.2-0.4
	s-0.4-0.7-0.3-1.2v-6.6c-0.5,0.6-0.8,1-1,1.2s-0.3,0.3-0.4,0.3C70.6,42.1,70.4,41.9,70.4,41.4z M73.9,39.9c-0.1,0.1-0.1,0.2-0.1,0.3
	v1.3h3.3v-1.8h-2.9C74.1,39.8,74,39.8,73.9,39.9z M73.8,44.6h3.3v-1.8h-3.3V44.6z M77.1,47.6v-1.8h-3.3v1.1c0,0.2,0.1,0.4,0.2,0.5
	s0.3,0.2,0.5,0.2H77.1z"/>
<radialGradient id="SVGID_3_" cx="74.9355" cy="62.0889" r="7.998" gradientUnits="userSpaceOnUse">
	<stop  offset="2.327833e-02" style="stop-color:#3F9264"/>
	<stop  offset="1" style="stop-color:#22824D"/>
</radialGradient>
<path class="st2" d="M82.9,66.4c0,0.6-0.3,0.8-0.8,0.8c-0.5,0-1.5-0.7-2.9-2.1c-0.7-0.7-1.3-1.4-1.9-2.2s-1.2-1.7-1.8-2.8v5.7h2.8
	c0.3,0,0.4,0.1,0.6,0.2s0.2,0.3,0.2,0.5c0,0.4-0.2,0.7-0.7,0.7h-2.8v2c0,0.6-0.2,0.9-0.7,0.9c-0.5,0-0.7-0.3-0.7-0.9v-2h-2.7
	c-0.5,0-0.8-0.2-0.8-0.7s0.3-0.7,0.8-0.7h2.7v-5.8c-1.1,1.9-2.3,3.6-3.6,5c-1.4,1.5-2.3,2.3-2.8,2.3c-0.5,0-0.8-0.3-0.8-0.8
	c0-0.3,0.2-0.6,0.5-0.8c1.3-0.9,2.4-2,3.6-3.3c1.1-1.4,2-2.6,2.5-3.7H68c-0.6,0-0.8-0.2-0.8-0.7s0.3-0.7,0.8-0.7h6.1V55
	c0-0.6,0.2-0.9,0.7-0.9c0.5,0,0.7,0.3,0.7,0.9v2.3h6.3c0.6,0,0.8,0.2,0.8,0.7s-0.3,0.7-0.8,0.7h-5.8c0.6,1.3,1.5,2.6,2.6,3.8
	c1.2,1.3,2.4,2.3,3.6,3C82.7,65.8,82.9,66.1,82.9,66.4z"/>
<radialGradient id="SVGID_4_" cx="74.9268" cy="79.8516" r="7.8937" gradientUnits="userSpaceOnUse">
	<stop  offset="2.327833e-02" style="stop-color:#3F9264"/>
	<stop  offset="1" style="stop-color:#22824D"/>
</radialGradient>
<path class="st3" d="M66.9,85.1c0-0.2,0.1-0.4,0.2-0.6s0.3-0.2,0.6-0.3l1.5-0.4v-6.2h-1.4c-0.5,0-0.7-0.2-0.7-0.7
	c0-0.4,0.2-0.7,0.7-0.7h1.4v-3.4c0-0.5,0.2-0.8,0.7-0.8c0.4,0,0.7,0.3,0.7,0.8v3.4h1.2c0.5,0,0.8,0.2,0.8,0.7c0,0.5-0.3,0.7-0.8,0.7
	h-1.2v5.8c0.2,0,0.5-0.1,1.1-0.3c0.1,0,0.3-0.1,0.4-0.1c0.2,0,0.3,0,0.4,0.1s0.1,0.2,0.2,0.4c0,0,0,0.1,0,0.2c0,0.2-0.1,0.3-0.2,0.4
	s-0.3,0.2-0.6,0.3c-2.3,0.8-3.7,1.1-4.1,1.1C67.2,85.8,66.9,85.5,66.9,85.1z M74.8,87.5c-0.9-0.1-1.4-0.7-1.4-1.6v-6.2
	c-0.9,0.4-1.4,0.5-1.5,0.5c-0.2,0-0.3-0.1-0.4-0.2s-0.1-0.3-0.1-0.5c0-0.3,0.2-0.6,0.6-0.7l1.5-0.6v-3.9c0-0.5,0.2-0.8,0.7-0.8
	c0.5,0,0.7,0.3,0.7,0.8v3.3l2.2-0.9v-3.9c0-0.5,0.2-0.8,0.7-0.8c0.5,0,0.7,0.3,0.7,0.8v3.4l1.9-0.8c0.4-0.1,0.7-0.2,0.9-0.2
	c0.8,0,1.1,0.5,1.1,1.4v4c0,1.8-0.9,2.7-2.6,2.7c-0.5,0-0.7-0.3-0.7-0.8c0-0.4,0.3-0.6,0.8-0.7c0.6-0.1,0.9-0.2,0.9-0.4
	s0.1-0.4,0.1-0.7v-3.3c0-0.4-0.1-0.5-0.4-0.5L80.1,77l-1.8,0.7v6.4c0,0.5-0.2,0.8-0.7,0.8c-0.5,0-0.7-0.3-0.7-0.8v-5.8l-2.2,0.8v6.3
	c0,0.3,0.2,0.5,0.5,0.7c0.3,0.1,1.3,0.2,3.2,0.2c1.4,0,2.3-0.1,2.5-0.3c0.3-0.2,0.4-0.5,0.4-0.9c0-0.4,0.1-0.7,0.2-0.9
	c0.1-0.2,0.3-0.2,0.5-0.2c0.5,0,0.8,0.3,0.8,0.8c0,1.4-0.3,2.2-1,2.5c-0.5,0.2-1.9,0.4-4.1,0.4C76.4,87.6,75.4,87.6,74.8,87.5z"/>
<radialGradient id="SVGID_5_" cx="76.21" cy="103.0459" r="5.4653" gradientUnits="userSpaceOnUse">
	<stop  offset="2.327833e-02" style="stop-color:#3F9264"/>
	<stop  offset="1" style="stop-color:#22824D"/>
</radialGradient>
<path class="st4" d="M82,105.4V102c0-0.5-0.3-0.8-0.8-0.8H69.9c-0.5,0-0.7-0.2-0.7-0.7s0.2-0.7,0.7-0.7h12c0.4,0,0.7,0.1,1,0.4
	c0.3,0.3,0.4,0.6,0.4,1v4.1c0,0.5-0.2,0.7-0.7,0.7S82,105.9,82,105.4z"/>
<radialGradient id="SVGID_6_" cx="74.9619" cy="116.2383" r="7.7763" gradientUnits="userSpaceOnUse">
	<stop  offset="2.327833e-02" style="stop-color:#3F9264"/>
	<stop  offset="1" style="stop-color:#22824D"/>
</radialGradient>
<path class="st5" d="M66.9,111.8c0-0.4,0.3-0.7,0.8-0.7h4.5c0.5,0,0.8,0.2,0.8,0.7s-0.3,0.7-0.8,0.7h-4.5
	C67.1,112.5,66.9,112.3,66.9,111.8z M67.3,109.5c0-0.4,0.3-0.7,0.8-0.7h3.5c0.5,0,0.8,0.2,0.8,0.7s-0.3,0.7-0.8,0.7h-3.5
	C67.6,110.1,67.3,109.9,67.3,109.5z M67.3,114.1c0-0.2,0.1-0.4,0.3-0.5s0.4-0.2,0.7-0.2h3.2c0.5,0,0.8,0.2,0.8,0.7s-0.3,0.7-0.8,0.7
	h-3.4C67.6,114.8,67.3,114.6,67.3,114.1z M67.3,116.5c0-0.4,0.3-0.7,0.8-0.7h3.4c0.5,0,0.8,0.2,0.8,0.7s-0.3,0.7-0.8,0.7h-3.4
	C67.6,117.2,67.3,116.9,67.3,116.5z M67.4,122.1v-2.5c0-0.9,0.5-1.4,1.4-1.4h2c1,0,1.4,0.5,1.4,1.4v2.5c0,0.9-0.5,1.4-1.4,1.4h-2
	C67.8,123.5,67.4,123,67.4,122.1z M71,121.8v-2.1c0-0.3-0.1-0.4-0.4-0.4H69c-0.3,0-0.4,0.1-0.4,0.4v2.1c0,0.3,0.1,0.4,0.4,0.4h1.5
	C70.8,122.3,71,122.1,71,121.8z M72.5,122.3c0-0.1,0.1-0.3,0.2-0.5c0.3-0.8,0.5-1.7,0.6-2.5c0.1-0.6,0.3-0.9,0.7-0.9
	c0.4,0,0.6,0.2,0.6,0.6c0,0.8-0.2,1.8-0.6,3.1c-0.2,0.6-0.4,0.9-0.8,0.9C72.7,122.9,72.5,122.7,72.5,122.3z M73.1,116.2
	c0-0.2,0.3-0.5,0.9-0.8c0.9-0.5,1.6-1.2,2-2.1l-1.4-0.8c-0.4-0.2-0.6-0.4-0.6-0.6c0-0.4,0.2-0.6,0.6-0.6c0.1,0,0.7,0.3,1.8,0.8
	c0.1-0.3,0.1-0.5,0.1-0.8s0-0.5,0.1-0.9H74c-0.5,0-0.8-0.2-0.8-0.7c0-0.4,0.3-0.7,0.8-0.7h6.9c1.1,0,1.6,0.4,1.6,1.3
	c0,0.2,0,0.5,0,0.9s0,0.6-0.1,0.8l0,0.4c-0.1,1.7-0.3,2.9-0.6,3.4c-0.3,0.7-1.1,1-2.4,1c-0.6,0-0.8-0.3-0.8-0.8
	c0-0.2,0.1-0.4,0.3-0.5s0.6-0.2,1-0.2c0.5,0,0.8-0.4,0.8-1.1c0.2-1.4,0.2-2.5,0.2-3.3c0-0.4-0.2-0.5-0.6-0.5h-2.6
	c-0.1,0.8-0.2,1.5-0.3,2.3c1.3,0.7,2,1.2,2,1.5c0,0.5-0.2,0.7-0.7,0.7c-0.2,0-0.7-0.3-1.7-0.9c-0.4,0.9-1,1.6-1.6,2.1
	c-0.7,0.6-1.3,0.9-1.7,0.9C73.4,116.9,73.1,116.7,73.1,116.2z M75.8,123.4c-0.3-0.2-0.5-0.6-0.5-1.2v-3.6c0-0.6,0.2-0.8,0.7-0.8
	c0.4,0,0.7,0.3,0.7,0.8v3.2c0,0.3,0.1,0.5,0.2,0.5c0.3,0.1,0.6,0.1,1,0.1c0.4,0,0.7-0.1,0.8-0.1s0.3-0.1,0.3-0.2
	c0.1-0.2,0.2-0.5,0.2-1c0-0.5,0.2-0.7,0.6-0.7c0.5,0,0.7,0.3,0.7,0.8c0,1.1-0.2,1.8-0.5,2.1c-0.3,0.3-0.9,0.4-1.6,0.4
	C77,123.7,76.1,123.6,75.8,123.4z M77.6,118.2c-0.4-0.5-0.6-0.8-0.6-0.9c0-0.4,0.2-0.6,0.7-0.6c0.2,0,0.5,0.2,1,0.7
	c0.5,0.5,0.7,0.8,0.7,1c0,0.4-0.2,0.6-0.7,0.6C78.5,119,78.1,118.7,77.6,118.2z M81.7,122.1c-0.5-1.2-0.9-2.1-1.3-2.8
	c-0.1-0.2-0.1-0.3-0.1-0.4c0-0.4,0.2-0.6,0.6-0.6c0.3,0,0.5,0.1,0.7,0.4c1,1.6,1.5,2.6,1.5,3.1c0,0.5-0.2,0.7-0.7,0.7
	C82,122.6,81.8,122.5,81.7,122.1z"/>
<radialGradient id="SVGID_7_" cx="74.6065" cy="133.957" r="7.7682" gradientUnits="userSpaceOnUse">
	<stop  offset="2.327833e-02" style="stop-color:#3F9264"/>
	<stop  offset="1" style="stop-color:#22824D"/>
</radialGradient>
<path class="st6" d="M72.1,134.2c0,0.5-0.1,1-0.1,1.3s-0.1,0.7-0.2,1.1c0.1-0.1,0.2-0.1,0.3-0.1s0.2,0,0.3,0
	c0.3,0.1,0.9,0.5,1.7,1.4c0.8,0.9,1.2,1.5,1.2,1.9c0,0.5-0.2,0.7-0.7,0.7c-0.2,0-0.4-0.1-0.6-0.4c-0.1-0.1-0.2-0.2-0.3-0.4
	s-0.3-0.4-0.4-0.6c-0.5-0.6-0.9-1.1-1.4-1.6c0,0-0.1-0.1-0.2-0.2c-0.4,1.3-1,2.4-1.8,3.3c-0.9,0.9-1.6,1.4-2.2,1.4
	c-0.2,0-0.4-0.1-0.5-0.2s-0.2-0.3-0.2-0.5c0-0.3,0.4-0.7,1.1-1.2c0.9-0.6,1.5-1.3,2-2.3s0.7-2.1,0.7-3.5h-3c-0.5,0-0.8-0.2-0.8-0.7
	c0-0.4,0.3-0.7,0.8-0.7h3v-3.4h-1.5c-0.5,1.2-0.9,1.8-1,2c-0.2,0.2-0.4,0.4-0.6,0.4c-0.5,0-0.7-0.2-0.7-0.7c0-0.1,0.1-0.3,0.3-0.6
	c0.8-1.3,1.3-2.6,1.6-3.8c0.1-0.4,0.4-0.7,0.7-0.7c0.5,0,0.7,0.2,0.7,0.6c0,0.2-0.2,0.6-0.5,1.5h4.5c0.5,0,0.8,0.2,0.8,0.7
	c0,0.4-0.3,0.7-0.8,0.7h-2.1v3.4h2.4c0.5,0,0.8,0.2,0.8,0.7c0,0.4-0.3,0.7-0.8,0.7H72.1z M81.9,140.7c-0.3,0.3-0.7,0.4-1.4,0.4h-2.9
	c-0.6,0-1.1-0.1-1.4-0.4s-0.4-0.7-0.4-1.4v-9.9c0-0.6,0.1-1,0.4-1.3c0.2-0.3,0.6-0.4,1.3-0.4h3c0.6,0,1,0.1,1.3,0.4
	c0.3,0.2,0.4,0.7,0.4,1.3v10C82.3,140,82.2,140.4,81.9,140.7z M80.8,138.8v-8.9c0-0.6-0.3-0.9-0.8-0.9h-1.8c-0.6,0-0.9,0.3-0.9,0.9
	v8.9c0,0.6,0.3,0.9,0.9,0.9H80C80.6,139.7,80.8,139.4,80.8,138.8z"/>
<radialGradient id="SVGID_8_" cx="75.3838" cy="152.1064" r="7.8375" gradientUnits="userSpaceOnUse">
	<stop  offset="2.327833e-02" style="stop-color:#3F9264"/>
	<stop  offset="1" style="stop-color:#22824D"/>
</radialGradient>
<path class="st7" d="M72.4,154c0,1.7-0.8,2.6-2.3,2.6c-0.6,0-0.8-0.3-0.8-0.8c0-0.4,0.3-0.7,1-0.8c0.6,0,0.8-0.5,0.8-1.3
	c0-0.8-0.3-1.7-1-2.6c-0.2-0.3-0.3-0.6-0.3-0.8c0-0.2,0.1-0.6,0.3-1c0.8-1.5,1.1-2.5,1.1-3c0-0.2-0.1-0.3-0.4-0.3h-1.2
	c-0.4,0-0.6,0.2-0.6,0.6v12.7c0,0.5-0.2,0.8-0.7,0.8c-0.4,0-0.7-0.3-0.7-0.8v-13.1c0-0.5,0.1-0.9,0.4-1.2s0.6-0.4,1.2-0.3h2.1
	c0.9,0,1.4,0.3,1.4,0.9c0,0.4-0.3,1.2-0.9,2.5c-0.6,1.3-0.9,2-0.9,2.2c0,0.1,0.2,0.4,0.5,0.9C72.1,152.1,72.4,153,72.4,154z
	 M83,156.8c0,0.4-0.2,0.6-0.7,0.6h-4.1v2c0,0.5-0.2,0.7-0.7,0.7c-0.5,0-0.7-0.2-0.7-0.7v-2h-4.3c-0.5,0-0.7-0.2-0.7-0.6
	c0-0.4,0.2-0.6,0.7-0.6h4.3v-0.9h-2.3c-0.9,0-1.3-0.4-1.3-1.3v-2.2c0-0.9,0.4-1.4,1.3-1.4h6.1c0.9,0,1.4,0.5,1.4,1.4v2.2
	c0,0.9-0.5,1.4-1.4,1.4h-2.4v0.9h4.1C82.8,156.2,83,156.4,83,156.8z M72.8,148.4h2.1l-0.3-1.7h-0.9c-0.5,0-0.7-0.2-0.7-0.6
	c0-0.4,0.2-0.6,0.7-0.6h3.2v-0.7c0-0.5,0.2-0.7,0.7-0.7c0.5,0,0.7,0.2,0.7,0.7v0.7h3.8c0.5,0,0.7,0.2,0.7,0.6c0,0.4-0.2,0.6-0.7,0.6
	h-1.4l-0.4,1.7h2.1c0.5,0,0.7,0.2,0.7,0.6s-0.2,0.6-0.7,0.6h-9.5c-0.5,0-0.7-0.2-0.7-0.6S72.3,148.4,72.8,148.4z M74.5,152.2h6.2
	v-0.3c0-0.3-0.2-0.5-0.5-0.5H75c-0.3,0-0.5,0.2-0.5,0.5V152.2z M80.2,154.2c0.3,0,0.5-0.2,0.5-0.5v-0.4h-6.2v0.4
	c0,0.3,0.2,0.5,0.5,0.5H80.2z M79.2,146.7h-3.4l0.3,1.7h2.8L79.2,146.7z"/>
<radialGradient id="SVGID_9_" cx="74.9531" cy="169.9307" r="7.946" gradientUnits="userSpaceOnUse">
	<stop  offset="2.327833e-02" style="stop-color:#3F9264"/>
	<stop  offset="1" style="stop-color:#22824D"/>
</radialGradient>
<path class="st8" d="M68.7,176.2c-0.2-0.2-0.3-0.6-0.3-1v-4c-0.4,0.9-0.7,1.4-0.9,1.4c-0.2,0-0.3-0.1-0.4-0.2s-0.1-0.3-0.1-0.6
	c0-0.2,0.1-0.5,0.3-0.9c0.9-1.7,1.5-3.8,1.8-6.5v-0.1h-1.2c-0.5,0-0.8-0.2-0.8-0.6c0-0.4,0.3-0.7,0.8-0.7h3.6c0.5,0,0.8,0.2,0.8,0.7
	c0,0.4-0.3,0.6-0.8,0.6h-1c-0.4,1.9-0.7,3.3-1,4.1c0.2,0,0.6,0,1.3,0c0.9,0,1.4,0.5,1.4,1.4v5.4c0,0.9-0.5,1.4-1.4,1.4h-0.9
	C69.3,176.5,68.9,176.4,68.7,176.2z M70.9,174.8v-4.7c0-0.3-0.2-0.5-0.5-0.5h-0.5c-0.2,0-0.3,0.1-0.3,0.3v4.9c0,0.3,0.2,0.5,0.5,0.5
	h0.4C70.7,175.3,70.8,175.1,70.9,174.8z M71.4,177c0-0.2,0.2-0.4,0.6-0.7c0.9-0.6,1.5-1.7,1.7-3h-0.9c-0.2,0-0.4-0.1-0.5-0.2
	s-0.2-0.3-0.2-0.4c0-0.4,0.2-0.6,0.7-0.6h1l0.1-1.6h-0.5c-0.3,0.7-0.6,1.1-0.8,1.1c-0.4,0-0.5-0.2-0.5-0.5c0-0.1,0.1-0.4,0.3-0.9
	c0.2-0.4,0.4-0.9,0.5-1.5c0.1-0.4,0.3-0.5,0.5-0.5c0.4,0,0.6,0.2,0.6,0.5l-0.2,0.7H76c0.4,0,0.7,0.2,0.7,0.6s-0.2,0.6-0.7,0.6h-1
	l0,1.6h1.2c0.5,0,0.7,0.2,0.7,0.6c0,0.4-0.2,0.6-0.7,0.6h-1.3l-0.2,1.1c0.1-0.1,0.2-0.1,0.4-0.1c0.2,0,0.4,0.2,0.8,0.5
	c0.3,0.3,0.5,0.5,0.5,0.8c0,0.4-0.2,0.6-0.6,0.6c-0.1,0-0.3-0.1-0.5-0.4c-0.1-0.1-0.3-0.3-0.5-0.5l-0.2-0.2
	c-0.2,0.7-0.6,1.3-1.1,1.8c-0.5,0.5-1,0.8-1.3,0.8C71.6,177.6,71.4,177.4,71.4,177z M73.2,167.9c-0.5-0.1-0.7-0.5-0.7-1.2v-3.9
	c0-0.5,0.2-0.7,0.7-0.7s0.7,0.2,0.7,0.7v1.3c0.5-0.2,1-0.5,1.4-0.8c0.2-0.1,0.3-0.2,0.5-0.2c0.4,0,0.7,0.2,0.7,0.6
	c0,0.4-0.8,0.9-2.5,1.6v0.9c0,0.3,0,0.4,0.1,0.5l0.9,0c0.3,0,0.6,0,0.7-0.1c0.1-0.1,0.2-0.3,0.2-0.7c0-0.3,0.2-0.5,0.6-0.5
	c0.4,0,0.6,0.2,0.6,0.6c0,0.8-0.2,1.3-0.5,1.7c-0.2,0.2-0.9,0.3-1.9,0.3C74.1,168,73.6,168,73.2,167.9z M75.6,177.2
	c0-0.2,0.1-0.4,0.3-0.6c0.9-1.1,1.3-2.8,1.3-5.1l0-0.7c0-0.2,0-0.4,0.1-0.5s0.3-0.2,0.5-0.2c0.4,0,0.6,0.2,0.6,0.5l-0.1,2.2
	l-0.1,1.1c0.3,0.7,0.6,1.2,1,1.5V169h-1.9c-0.5,0-0.7-0.2-0.7-0.7c0-0.4,0.2-0.6,0.7-0.6h4.5c0.8,0,1.2,0.3,1.2,0.8
	c0,0.2-0.2,0.8-0.5,1.6c-0.3,0.8-0.6,1.3-0.9,1.3c-0.4,0-0.6-0.2-0.6-0.6c0-0.1,0.1-0.3,0.2-0.5c0.3-0.6,0.5-1,0.5-1.2
	c0-0.1-0.1-0.1-0.2-0.1h-1.1v3.1h1.4c0.5,0,0.7,0.2,0.7,0.7c0,0.4-0.2,0.6-0.7,0.6h-1.4v2.6c0.4,0.1,0.7,0.1,0.9,0.1l1.1,0
	c0.4,0,0.7,0.2,0.7,0.7c0,0.5-0.3,0.7-0.9,0.7c-1.2,0-2.3-0.2-3.1-0.7c-0.5-0.3-0.9-0.7-1.3-1.5c-0.5,1.5-1,2.3-1.6,2.3
	C75.8,177.8,75.6,177.6,75.6,177.2z M79.8,167.4c-0.4-0.4-1-0.9-1.8-1.4c-0.3-0.2-0.4-0.3-0.4-0.5c0-0.4,0.2-0.6,0.6-0.6
	c0.2,0,0.4,0.1,0.8,0.4l0.5,0.3l0.9-1l0.3-0.3c0.1-0.1,0.1-0.2,0.1-0.2c0,0,0-0.1-0.1-0.1h-3.3c-0.5,0-0.7-0.2-0.7-0.6
	c0-0.4,0.2-0.6,0.7-0.6h4.1c0.8,0,1.1,0.3,1.1,0.8c0,0.2-0.3,0.6-0.8,1.2c-0.5,0.6-0.9,1.1-1.4,1.5c0.4,0.3,0.6,0.6,0.6,0.8
	c0,0.2-0.1,0.4-0.2,0.5s-0.3,0.2-0.5,0.2C80.2,167.7,80,167.6,79.8,167.4z"/>
<radialGradient id="SVGID_10_" cx="74.9268" cy="187.8779" r="7.924" gradientUnits="userSpaceOnUse">
	<stop  offset="2.327833e-02" style="stop-color:#3F9264"/>
	<stop  offset="1" style="stop-color:#22824D"/>
</radialGradient>
<path class="st9" d="M67,194.9c0-0.2,0.1-0.4,0.4-0.7c1.1-1.3,1.8-3,2-5c-1,0.8-1.6,1.1-1.8,1.1c-0.5,0-0.7-0.3-0.7-0.8
	c0-0.3,0.2-0.6,0.5-0.7c0.5-0.2,1.2-0.6,2-1.1l0-4.3c0-0.5,0.1-0.9,0.4-1.2s0.7-0.4,1.3-0.4h3.8v-1.1c0-0.5,0.3-0.8,0.8-0.8
	s0.8,0.3,0.8,0.8v1.1H82c0.6,0,0.8,0.2,0.8,0.7c0,0.4-0.3,0.7-0.8,0.7H71.4c-0.4,0-0.5,0.2-0.5,0.7v1.3c0,2.3-0.1,4-0.3,5.3
	c-0.2,1.3-0.6,2.4-1.2,3.5c-0.6,1.1-1.2,1.7-1.6,1.7C67.3,195.7,67,195.4,67,194.9z M67.6,185.4c-0.1-0.4-0.2-0.8-0.3-1.3l-0.1-0.6
	c0-0.2,0-0.3,0.1-0.4s0.3-0.1,0.5-0.1c0.2,0,0.4,0.1,0.5,0.3c0.2,0.3,0.4,1,0.5,2.1l0.1,0.4c0,0.2,0,0.3-0.1,0.4s-0.3,0.1-0.5,0.1
	C67.9,186.3,67.6,186,67.6,185.4z M69.8,194.6c0-0.4,0.3-0.7,0.8-0.7h1.8v-4.8c0-0.6,0.2-0.9,0.7-0.9s0.7,0.3,0.7,0.9v4.8h2.6v-7.3
	h-4.3c-0.5,0-0.8-0.2-0.8-0.7c0-0.4,0.3-0.7,0.8-0.7h9.6c0.5,0,0.8,0.2,0.8,0.7c0,0.4-0.3,0.7-0.8,0.7h-3.9v2.8H81
	c0.5,0,0.8,0.2,0.8,0.7c0,0.4-0.3,0.7-0.8,0.7h-3.2v3.1h4.3c0.5,0,0.8,0.2,0.8,0.7c0,0.4-0.3,0.7-0.8,0.7H70.6
	C70.1,195.3,69.8,195,69.8,194.6z"/>
<radialGradient id="SVGID_11_" cx="73.6348" cy="201.1494" r="5.471" gradientUnits="userSpaceOnUse">
	<stop  offset="2.327833e-02" style="stop-color:#3F9264"/>
	<stop  offset="1" style="stop-color:#22824D"/>
</radialGradient>
<path class="st10" d="M67,203.8c-0.3-0.3-0.4-0.6-0.4-0.9v-4.1c0-0.5,0.2-0.7,0.7-0.7s0.7,0.2,0.7,0.7v3.4c0,0.6,0.3,0.8,0.8,0.8H80
	c0.5,0,0.8,0.2,0.8,0.7s-0.3,0.7-0.8,0.7h-12C67.6,204.3,67.3,204.1,67,203.8z"/>
<radialGradient id="SVGID_12_" cx="75.0498" cy="224.0713" r="7.802" gradientUnits="userSpaceOnUse">
	<stop  offset="2.327833e-02" style="stop-color:#3F9264"/>
	<stop  offset="1" style="stop-color:#22824D"/>
</radialGradient>
<path class="st11" d="M67.8,231.4c-0.2-0.2-0.3-0.6-0.3-1v-10c0-0.4,0.1-0.8,0.3-1s0.6-0.4,1-0.4h0.9c0.1-0.5,0.2-1.3,0.3-2.2
	c0-0.2,0.1-0.4,0.2-0.5s0.3-0.2,0.5-0.2c0.6,0,0.8,0.3,0.8,0.9c-0.1,0.7-0.2,1.3-0.5,2h1.3c0.9,0,1.3,0.5,1.3,1.4l0,10
	c0,0.9-0.5,1.4-1.4,1.4h-3.6C68.3,231.7,68,231.6,67.8,231.4z M72.2,220.9c0-0.4-0.2-0.6-0.6-0.6h-2.2c-0.4,0-0.6,0.2-0.6,0.6v3.5
	h3.4V220.9z M72.2,229.8v-4.1h-3.4v4.1c0,0.4,0.2,0.6,0.6,0.6h2.2C72.1,230.4,72.2,230.2,72.2,229.8z M77.5,231.8
	c-0.1-0.1-0.2-0.3-0.2-0.5c0-0.5,0.3-0.7,0.8-0.7c0.7,0,1.2,0,1.5,0s0.5-0.1,0.7-0.2s0.3-0.3,0.4-0.6c0.2-0.5,0.3-1.7,0.4-3.5
	s0.1-3.6,0.1-5.3c0-0.4-0.3-0.7-0.8-0.7h-3.9c-0.2,0.6-0.6,1.3-1.1,2.1c-0.2,0.3-0.4,0.4-0.6,0.4c-0.1,0-0.3,0-0.4-0.1
	c-0.2-0.1-0.4-0.3-0.4-0.5c0-0.2,0-0.3,0.1-0.5c0.5-0.9,0.9-1.7,1.1-2.3c0.3-0.8,0.6-1.6,0.8-2.6c0.1-0.2,0.1-0.4,0.3-0.5
	s0.3-0.2,0.4-0.2c0,0,0.1,0,0.2,0c0.4,0.1,0.5,0.3,0.5,0.6c0,0.1,0,0.2-0.1,0.4c-0.1,0.3-0.2,0.7-0.3,1s-0.2,0.6-0.3,0.8h4.2
	c1,0,1.5,0.4,1.5,1.3c0,2.2-0.1,4.3-0.2,6.4s-0.3,3.4-0.6,4.1c-0.2,0.5-0.5,0.8-1,1s-1.1,0.3-2,0.3c-0.4,0-0.6,0-0.8,0
	C77.8,232,77.6,231.9,77.5,231.8z M77.6,227.2c-0.1-0.1-0.3-0.3-0.4-0.6c-0.2-0.4-0.6-0.9-1-1.6l-0.2-0.4c-0.1-0.1-0.1-0.2-0.1-0.3
	s-0.1-0.2-0.1-0.3c0-0.2,0.1-0.4,0.2-0.5s0.3-0.2,0.5-0.2s0.4,0.1,0.6,0.3s0.5,0.6,0.8,1c0.7,1,1,1.7,1,2c0,0.2-0.1,0.4-0.2,0.5
	s-0.3,0.2-0.5,0.2C77.9,227.4,77.7,227.3,77.6,227.2z"/>
<radialGradient id="SVGID_13_" cx="33.9639" cy="27.9127" r="9.6942" gradientUnits="userSpaceOnUse">
	<stop  offset="2.327833e-02" style="stop-color:#3F9264"/>
	<stop  offset="1" style="stop-color:#22824D"/>
</radialGradient>
<path class="st12" d="M43.9,31.6c0,0.3-0.1,0.5-0.2,0.6c-0.2,0.1-0.4,0.2-0.7,0.2h-8v3.8c0,0.4-0.1,0.7-0.2,0.9
	c-0.2,0.2-0.4,0.3-0.7,0.3c-0.6,0-0.9-0.4-0.9-1.2v-3.8H25c-0.3,0-0.6-0.1-0.7-0.2c-0.2-0.1-0.2-0.3-0.2-0.6s0.1-0.5,0.2-0.6
	c0.2-0.1,0.4-0.2,0.7-0.2h8.1v-2.3h-4.4c-1.6,0.1-2.3-0.6-2.2-2.2v-5.6c-0.1-0.8,0.1-1.4,0.5-1.7c0.4-0.4,1-0.5,1.8-0.5h10.6
	c0.8,0,1.4,0.2,1.8,0.5c0.4,0.4,0.5,0.9,0.5,1.7v5.6c0.1,1.6-0.6,2.3-2.2,2.2h-4.4v2.3h8C43.6,30.8,43.9,31.1,43.9,31.6z M28.3,22.7
	h11.5v-1.8c0-0.3-0.1-0.5-0.2-0.6c-0.2-0.1-0.4-0.2-0.6-0.2h-9.8c-0.3,0-0.5,0.1-0.6,0.2c-0.1,0.1-0.2,0.3-0.2,0.6V22.7z M28.5,26.7
	c0.1,0.2,0.3,0.2,0.6,0.2h9.8c0.3,0,0.5-0.1,0.6-0.2c0.2-0.1,0.2-0.4,0.2-0.6v-1.8H28.3v1.8C28.3,26.3,28.3,26.5,28.5,26.7z"/>
<radialGradient id="SVGID_14_" cx="33.6309" cy="51.4434" r="9.5989" gradientUnits="userSpaceOnUse">
	<stop  offset="2.327833e-02" style="stop-color:#3F9264"/>
	<stop  offset="1" style="stop-color:#22824D"/>
</radialGradient>
<path class="st13" d="M24.2,55.3c0-0.5,0.3-0.8,0.9-0.8h1.1V46h-0.9c-0.6,0-0.8-0.3-0.8-0.8c0-0.5,0.3-0.8,0.8-0.8h0.9v-1.7
	c0-0.7,0.3-1,0.9-1c0.3,0,0.5,0.1,0.6,0.3c0.1,0.2,0.2,0.4,0.2,0.8v1.7H32v-1.7c0-0.7,0.3-1,0.8-1c0.6,0,0.8,0.3,0.8,1v1.7h0.8
	c0.6,0,0.9,0.3,0.9,0.8c0,0.5-0.3,0.8-0.9,0.8h-0.8v8.6h0.8c0.6,0,0.8,0.3,0.8,0.8c0,0.5-0.3,0.8-0.8,0.8H25
	C24.4,56.2,24.2,55.9,24.2,55.3z M24.2,59.6c0-0.3,0.2-0.7,0.7-1c0.5-0.3,1.1-0.9,1.9-1.6c0.3-0.3,0.6-0.5,0.9-0.5
	c0.5,0,0.8,0.3,0.8,0.8c0,0.4-0.5,1-1.4,1.9c-1,0.8-1.6,1.3-2,1.3C24.5,60.5,24.2,60.2,24.2,59.6z M32,47.8V46h-4.2v1.8H32z
	 M32,51.1v-1.8h-4.2v1.8H32z M32,54.5v-2h-4.2v2H32z M31.7,58.5L31.3,58c-0.2-0.2-0.3-0.3-0.3-0.4c-0.1-0.1-0.1-0.2-0.1-0.3
	c0-0.5,0.3-0.8,0.8-0.8c0.3,0,0.7,0.3,1.2,0.8c0.6,0.5,0.8,0.9,0.8,1.2c0,0.6-0.3,0.9-0.9,0.9C32.6,59.4,32.2,59.1,31.7,58.5z
	 M33.1,60.3c0-0.3,0.2-0.6,0.6-1c0.9-0.7,1.5-1.7,1.8-3c0.3-1.2,0.5-4,0.5-8.2l0-3.7c0-0.7,0.2-1.2,0.5-1.5c0.3-0.3,0.8-0.5,1.5-0.5
	h3.2c0.7,0,1.2,0.2,1.5,0.5c0.3,0.3,0.5,0.8,0.5,1.5v14.5c0,0.8-0.2,1.3-0.5,1.7c-0.3,0.4-0.9,0.5-1.6,0.5h-1.2c-0.6,0-1-0.3-1-0.9
	c0-0.6,0.3-0.9,1-0.9h1c0.4,0,0.6-0.2,0.6-0.6v-4.4h-4c-0.1,1.7-0.4,3.1-0.8,4c-0.4,1-0.9,1.7-1.3,2.2c-0.4,0.5-0.8,0.7-1.3,0.7
	C33.4,61.2,33.1,60.9,33.1,60.3z M41.4,52.6v-3.4h-3.8l-0.1,3.4H41.4z M41.4,44.9c0-0.5-0.3-0.7-0.8-0.8h-2.4
	c-0.2,0-0.3,0.1-0.5,0.2c-0.1,0.1-0.2,0.3-0.2,0.5l0,2v0.8h3.8V44.9z"/>
<radialGradient id="SVGID_15_" cx="34.0068" cy="75.4971" r="9.856" gradientUnits="userSpaceOnUse">
	<stop  offset="2.327833e-02" style="stop-color:#3F9264"/>
	<stop  offset="1" style="stop-color:#22824D"/>
</radialGradient>
<path class="st14" d="M29.6,77l-1-2v9.5c0,0.6-0.3,0.8-0.8,0.8s-0.8-0.3-0.8-0.8v-9c-0.8,3.1-1.5,4.6-2.2,4.6
	c-0.2,0-0.4-0.1-0.5-0.2s-0.2-0.3-0.2-0.5c0-0.3,0.1-0.7,0.3-1c1.2-2,2-4.2,2.4-6.8h-1.6c-0.6,0-1-0.3-1-0.8c0-0.5,0.3-0.8,1-0.8
	h1.8v-3.6c0-0.6,0.3-0.8,0.8-0.8s0.8,0.3,0.8,0.8v3.6h1.3c0.7,0,1,0.3,1,0.8c0,0.5-0.3,0.8-1,0.8h-1.3v2.8c0.1-0.2,0.3-0.3,0.5-0.3
	c0.1,0,0.3,0.1,0.5,0.3c0.2,0.2,0.4,0.6,0.7,1c0.5,0.9,0.8,1.5,0.8,1.7c0,0.5-0.2,0.7-0.7,0.7C30.2,78,29.9,77.7,29.6,77z
	 M36.1,83.3c-0.1,0.1-0.3,0.2-0.5,0.2c-0.2,0-0.4-0.1-0.7-0.3s-0.7-0.5-1.3-1c-0.5,0.8-1,1.4-1.6,1.9c-0.6,0.6-1.1,0.8-1.4,0.8
	s-0.5-0.1-0.6-0.2c-0.1-0.1-0.2-0.3-0.2-0.5c0-0.2,0-0.4,0.1-0.5c0.1-0.1,0.2-0.3,0.4-0.4c1.3-0.9,2.2-2.1,2.6-3.6
	c-0.5,0-0.9-0.2-1.2-0.5c-0.3-0.3-0.4-0.6-0.4-1.1v-2.4c0-1.1,0.6-1.6,1.7-1.6H35c0.5,0,1,0.1,1.2,0.4s0.4,0.7,0.4,1.2v2.4
	c0,1.1-0.6,1.6-1.7,1.6h-0.4L34.2,81c1.4,0.8,2.1,1.4,2.1,1.8C36.3,83,36.2,83.2,36.1,83.3z M43.8,72.4c0,0.6-0.3,0.9-0.9,0.9
	c-0.3,0-0.6-0.1-1-0.3c-0.4-0.2-0.9-0.6-1.6-1.1c0,0.1,0,0.2,0,0.3c0,0.5-0.3,0.8-0.9,0.8h-5.1c-0.6,0-0.9-0.2-0.9-0.8
	c0-0.1,0-0.2,0-0.3l0,0c-1.2,1.2-2,1.8-2.4,1.8c-0.6,0-0.9-0.3-0.9-0.9c0-0.1,0.1-0.3,0.2-0.5c0.1-0.2,0.3-0.4,0.6-0.5
	c2-1.4,3.5-3.2,4.6-5.4c0.3-0.6,0.6-0.8,0.9-0.8c0.3,0,0.5,0.1,0.7,0.2c0.2,0.1,0.2,0.3,0.2,0.5c0,0.1-0.1,0.2-0.2,0.4
	c1.7,2.3,3.7,3.9,5.9,4.8C43.6,71.7,43.8,72,43.8,72.4z M33,77.8c0,0.3,0.1,0.5,0.4,0.5h1.1c0.2,0,0.3,0,0.4-0.1
	c0.1-0.1,0.1-0.2,0.1-0.4v-1.7c0-0.2,0-0.3-0.1-0.4c-0.1-0.1-0.2-0.1-0.4-0.2h-1.1c-0.3,0-0.4,0.2-0.4,0.6V77.8z M39.7,71.5
	c-0.6-0.5-1.2-1-1.7-1.5c-0.5-0.5-1-1.2-1.5-1.9c-0.8,1.3-1.7,2.5-2.7,3.5c0.1,0,0.3-0.1,0.5-0.1h5C39.5,71.5,39.7,71.5,39.7,71.5z
	 M43.5,84.2c0,0.6-0.3,0.9-0.9,0.9c-0.3,0-0.5-0.2-0.8-0.5c-0.7-0.8-1.5-1.5-2.3-2.1c-0.4,0.6-0.9,1.2-1.6,1.8
	c-0.6,0.6-1.1,0.9-1.5,0.9c-0.3,0-0.5-0.1-0.7-0.2s-0.2-0.3-0.2-0.5c0-0.2,0.1-0.4,0.2-0.5c0.1-0.2,0.4-0.3,0.7-0.6
	c1.3-0.9,2.1-2.1,2.5-3.6c-0.6,0-1-0.1-1.3-0.3c-0.3-0.2-0.4-0.6-0.4-1.1v-2.5c0-0.5,0.1-0.9,0.4-1.2c0.3-0.3,0.7-0.4,1.2-0.4H41
	c1.1,0,1.6,0.6,1.6,1.7v2.3c0,1.1-0.5,1.6-1.6,1.6h-0.6c-0.1,0.5-0.2,1-0.4,1.4l0.8,0.5C42.6,82.8,43.5,83.7,43.5,84.2z M38.9,78.2
	c0.1,0.1,0.2,0.1,0.3,0.2h1.3c0.4,0,0.6-0.2,0.6-0.6v-1.6c0-0.4-0.2-0.6-0.6-0.6h-1.3c-0.3,0.1-0.4,0.3-0.4,0.6v1.6
	C38.8,78,38.9,78.1,38.9,78.2z"/>
<radialGradient id="SVGID_16_" cx="33.7963" cy="99.6382" r="9.4148" gradientUnits="userSpaceOnUse">
	<stop  offset="2.327833e-02" style="stop-color:#3F9264"/>
	<stop  offset="1" style="stop-color:#22824D"/>
</radialGradient>
<path class="st15" d="M25.1,97.5c-0.4-0.2-0.6-0.5-0.6-0.8c0-0.3,0.1-0.5,0.2-0.7s0.4-0.2,0.7-0.2c0.4,0,1.1,0.2,1.9,0.7
	c0.4,0.2,0.6,0.5,0.6,0.9c0,0.3-0.1,0.5-0.2,0.7c-0.1,0.2-0.4,0.2-0.7,0.2C26.9,98.3,26.2,98,25.1,97.5z M24.7,108.1
	c0-0.2,0.2-0.8,0.6-1.8c0.4-0.9,0.8-2.5,1.4-4.6c0.1-0.5,0.4-0.7,0.8-0.7c0.6,0,0.9,0.3,0.9,0.8c0,0.3-0.3,1.4-0.8,3.2
	c-0.5,1.7-0.9,2.8-1.1,3.3c-0.1,0.2-0.2,0.3-0.3,0.4c-0.1,0.1-0.3,0.2-0.5,0.2C25,109,24.7,108.7,24.7,108.1z M27.3,92.6l-0.9-0.5
	c-0.3-0.1-0.5-0.3-0.6-0.4c-0.1-0.1-0.2-0.3-0.2-0.5c0-0.6,0.3-0.9,0.9-0.9c0.3,0,0.8,0.2,1.7,0.6c0.5,0.3,0.8,0.6,0.8,1
	c0,0.3-0.1,0.5-0.3,0.7c-0.2,0.2-0.4,0.3-0.5,0.3C27.9,92.9,27.7,92.8,27.3,92.6z M28.5,108c0-0.2,0.1-0.4,0.3-0.7
	c0.6-0.7,1-1.2,1.3-1.7c0.4-0.6,0.8-1,1.1-1c0.3,0,0.5,0.1,0.6,0.2c0.1,0.1,0.2,0.3,0.2,0.6c0,0.2-0.4,0.9-1.1,1.9
	c-0.7,1-1.3,1.6-1.7,1.6C28.7,108.9,28.5,108.6,28.5,108z M29.7,102.7V92.3c0-1.1,0.6-1.7,1.7-1.7h2.8c1.2,0,1.7,0.6,1.7,1.7v10.3
	c0,1.1-0.6,1.7-1.7,1.7h-2.8C30.3,104.4,29.7,103.8,29.7,102.7z M34.4,92.8c0-0.4-0.2-0.6-0.6-0.6H32c-0.4,0-0.6,0.2-0.6,0.6v1.9
	h3.1V92.8z M34.4,98.6v-2.6h-3.1v2.6H34.4z M34.4,102.2v-2.1h-3.1v2.1c0,0.4,0.2,0.6,0.6,0.6h1.9C34.2,102.9,34.4,102.7,34.4,102.2z
	 M35.1,107.8l-1.1-1.7c0,0-0.1-0.1-0.2-0.3c-0.1-0.2-0.1-0.3-0.1-0.4c0-0.2,0.1-0.4,0.2-0.6c0.1-0.1,0.3-0.2,0.6-0.2
	c0.4,0,0.9,0.4,1.5,1.3c0.6,0.9,0.9,1.4,0.9,1.6c0,0.6-0.3,0.9-0.9,0.9C35.8,108.5,35.5,108.3,35.1,107.8z M37.6,104.2V92.5
	c0-0.6,0.3-0.9,0.8-0.9c0.5,0,0.8,0.3,0.8,0.9v11.7c0,0.6-0.3,0.8-0.8,0.8C37.8,105.1,37.6,104.8,37.6,104.2z M38.7,108.3
	c0-0.6,0.3-0.9,0.9-0.9h0.8c0.6,0,0.9-0.3,0.9-0.9V91.1c0-0.7,0.3-1.1,0.9-1.1c0.6,0,0.8,0.4,0.8,1.1V107c0.1,1.6-0.7,2.3-2.3,2.3
	h-1.1C39,109.2,38.7,108.9,38.7,108.3z"/>
<radialGradient id="SVGID_17_" cx="33.5937" cy="123.6152" r="9.5919" gradientUnits="userSpaceOnUse">
	<stop  offset="2.327833e-02" style="stop-color:#3F9264"/>
	<stop  offset="1" style="stop-color:#22824D"/>
</radialGradient>
<path class="st16" d="M30.5,121.3v2.4c0.1-0.3,0.3-0.4,0.6-0.4c0.1,0,0.3,0.1,0.6,0.4c0.3,0.3,0.6,0.6,1,1.1c0.5,0.5,0.8,0.9,1,1.2
	c0.2,0.3,0.3,0.5,0.3,0.7c0,0.5-0.3,0.8-0.8,0.8c-0.3,0-0.6-0.3-1-0.9c-0.3-0.5-0.7-1.1-1.3-1.8c-0.1-0.2-0.3-0.4-0.4-0.7v8.2
	c0,0.7-0.3,1-0.9,1c-0.6,0-0.8-0.3-0.8-1v-8.1c-0.5,1.5-1.2,2.8-2,4c-0.8,1.2-1.4,1.8-1.7,1.8c-0.6,0-0.9-0.3-0.9-0.9
	c0-0.2,0.2-0.5,0.6-1c1.8-2.1,3.1-4.4,3.9-6.9h-3.5c-0.6,0-0.9-0.3-0.9-0.9c0-0.6,0.3-0.8,0.9-0.8h3.6v-3.1
	c-1.2,0.1-2.3,0.2-3.5,0.3c-0.3,0-0.5,0-0.6-0.2c-0.1-0.1-0.2-0.3-0.2-0.6c0-0.5,0.4-0.8,1.1-0.8c2.6-0.2,4.8-0.5,6.4-1l0.9-0.3
	c0.6,0,0.9,0.3,0.9,0.9c0,0.4-0.2,0.7-0.6,0.9c-0.5,0.2-1.4,0.4-2.8,0.6v3.4h2.6c0.6,0,0.9,0.3,0.9,0.9c0,0.6-0.3,0.8-0.9,0.8H30.5z
	 M43,118.3v11.5c0,0.8-0.2,1.4-0.5,1.7c-0.4,0.4-0.9,0.5-1.7,0.5h-4c-0.8,0-1.4-0.2-1.7-0.5c-0.4-0.4-0.5-0.9-0.5-1.7v-11.5
	c-0.1-1.6,0.6-2.3,2.2-2.2h4C42.4,116,43.1,116.8,43,118.3z M41.2,118.9c0-0.6-0.3-0.9-0.9-0.9h-2.9c-0.7,0-1,0.3-1,0.9v10.4
	c0,0.6,0.3,1,1,1h2.9c0.6,0,0.9-0.3,0.9-1V118.9z"/>
<radialGradient id="SVGID_18_" cx="34.0391" cy="148.002" r="9.5257" gradientUnits="userSpaceOnUse">
	<stop  offset="2.327833e-02" style="stop-color:#3F9264"/>
	<stop  offset="1" style="stop-color:#22824D"/>
</radialGradient>
<path class="st17" d="M33.5,146.3c0,0.2,0,0.4-0.1,0.6c-0.1,0.4-0.3,0.9-0.5,1.5c-0.3,0.6-0.5,1.1-0.8,1.6c-0.2,0.3-0.4,0.4-0.6,0.4
	c-0.1,0-0.2,0-0.4-0.1c-0.2-0.1-0.4-0.3-0.4-0.6c0-0.2,0-0.3,0.1-0.5c0.4-0.8,0.7-1.5,0.9-2.2c0-0.1,0-0.2,0-0.2
	c0-0.1-0.1-0.2-0.3-0.2h-1.9v8.2c0,0.7-0.2,1.2-0.5,1.6c-0.3,0.3-0.8,0.5-1.5,0.5h-1.5c-0.2,0-0.4-0.1-0.6-0.2
	c-0.2-0.1-0.2-0.4-0.2-0.6c0-0.6,0.3-0.9,0.9-0.9h1.3c0.4,0,0.5-0.2,0.5-0.5v-8.1h-2.7c-0.3,0-0.6-0.1-0.7-0.2s-0.2-0.3-0.2-0.6
	s0.1-0.5,0.2-0.6s0.4-0.2,0.7-0.2H29c-0.4-0.4-1.1-0.9-2-1.6l-0.9-0.7c-0.2-0.2-0.3-0.4-0.3-0.6c0-0.1,0-0.3,0.1-0.4
	c0.1-0.2,0.3-0.3,0.6-0.3c0.1,0,0.2,0,0.4,0.1c0.4,0.2,1,0.6,1.8,1.2c0.8-0.8,1.4-1.6,1.9-2.3c0-0.1,0.1-0.1,0.1-0.2
	c0-0.1,0-0.1-0.1-0.2c-0.1,0-0.1-0.1-0.2-0.1h-4.8c-0.6,0-0.9-0.3-0.9-0.8s0.3-0.8,0.9-0.8h5.8c0.4,0,0.7,0.1,1,0.3
	c0.2,0.2,0.4,0.4,0.4,0.8c0,0.2-0.1,0.5-0.2,0.8c-0.3,0.6-0.8,1.2-1.2,1.7c-0.5,0.6-1,1-1.5,1.5l0.5,0.4c0.2,0.1,0.3,0.3,0.3,0.6
	c0,0.2-0.1,0.4-0.2,0.6h2C33.1,145.3,33.5,145.6,33.5,146.3z M37.5,154.4c0,0.4-0.4,0.8-1.2,1.3c-0.8,0.5-1.4,0.9-2,1.2
	c-0.5,0.3-1,0.4-1.3,0.4c-0.5,0-0.8-0.3-0.8-0.9c0-0.2,0.1-0.3,0.2-0.5c0.2-0.1,0.4-0.3,0.7-0.4c0.7-0.3,1.4-0.7,2-1.1
	c0.7-0.5,1.1-0.7,1.2-0.8c0.1-0.1,0.2-0.1,0.3-0.1C37.2,153.6,37.5,153.9,37.5,154.4z M33.4,139.5c0-0.5,0.3-0.8,0.8-0.8h8.4
	c0.6,0,0.8,0.3,0.8,0.8c0,0.5-0.3,0.8-0.8,0.8h-3.4l-0.5,2h2.4c0.5,0,0.9,0.1,1.2,0.4s0.4,0.7,0.4,1.2v7.8c0,0.5-0.1,0.9-0.4,1.2
	s-0.7,0.4-1.2,0.4h-5.6c-0.5,0-0.9-0.1-1.2-0.4s-0.4-0.7-0.4-1.2v-7.8c0-0.5,0.1-0.9,0.4-1.2s0.7-0.4,1.2-0.4h1.6l0.3-2h-3.3
	C33.7,140.3,33.4,140,33.4,139.5z M36.2,143.7c-0.2,0-0.4,0.1-0.5,0.2c-0.1,0.1-0.2,0.3-0.2,0.5v1.1h5.6v-1c0-0.5-0.2-0.7-0.7-0.7
	H36.2z M41.2,148.5v-1.7h-5.6v1.7H41.2z M41.2,149.9h-5.6v1.2c0,0.4,0.2,0.7,0.7,0.7h4.3c0.5,0,0.7-0.2,0.7-0.7V149.9z M43.5,155.8
	c0.2,0.2,0.3,0.4,0.3,0.5c0,0.3-0.1,0.5-0.2,0.7c-0.1,0.1-0.4,0.2-0.7,0.2c-0.3,0-1-0.4-2.1-1.2c-1.1-0.8-1.6-1.4-1.6-1.7
	c0-0.5,0.3-0.8,0.8-0.8c0.2,0,0.4,0.1,0.7,0.3c0.8,0.7,1.5,1.2,2.1,1.5C43.1,155.5,43.4,155.7,43.5,155.8z"/>
<radialGradient id="SVGID_19_" cx="34.5225" cy="171.583" r="9.5257" gradientUnits="userSpaceOnUse">
	<stop  offset="2.327833e-02" style="stop-color:#3F9264"/>
	<stop  offset="1" style="stop-color:#22824D"/>
</radialGradient>
<path class="st18" d="M28.6,177.1c-0.8,0-1.2-0.3-1.2-1c0-0.5,0.3-0.8,0.9-0.9c1.1-0.1,1.7-0.6,1.7-1.7c0-1-0.5-2.1-1.5-3.3
	c-0.3-0.3-0.4-0.6-0.4-0.8c0-0.2,0.3-1,0.9-2.3c0.6-1.3,0.8-2.1,0.8-2.4c0-0.3-0.2-0.5-0.6-0.5h-1.5c-0.6,0-0.9,0.3-0.9,0.9v15.3
	c0,0.7-0.3,1-0.8,1s-0.8-0.3-0.8-1v-15.8c0-0.7,0.2-1.2,0.5-1.5c0.3-0.3,0.8-0.5,1.5-0.4h3.1c1.2,0,1.8,0.4,1.8,1.2
	c0,0.3-0.3,1.1-0.8,2.3l-0.9,2.1c-0.2,0.6-0.4,0.9-0.4,1.1c0,0.2,0.1,0.5,0.4,0.8c1,1.2,1.5,2.5,1.5,3.8
	C31.8,176,30.7,177.1,28.6,177.1z M43.6,165.4c0.2,0.1,0.2,0.3,0.2,0.6c0,0.3-0.1,0.5-0.2,0.6s-0.4,0.2-0.7,0.2h-6.6
	c0,0.6,0,1.3,0,2c0,0.3,0,0.7,0,1.2h4.6c0.7,0,1.2,0.2,1.5,0.5c0.3,0.3,0.5,0.8,0.5,1.5c0,1-0.1,2.4-0.3,4.2
	c-0.2,1.7-0.4,2.9-0.8,3.7c-0.3,0.7-1,1-2.1,1.1c-0.1,0-0.3,0-0.7,0.1c-0.4,0-0.8,0-1.2,0c-0.3,0-0.5-0.1-0.7-0.2s-0.3-0.3-0.3-0.6
	s0.1-0.5,0.3-0.6c0.2-0.1,0.5-0.2,0.8-0.2c0.7,0,1.2,0,1.6,0c0.6,0,1-0.6,1.2-1.7c0.3-2.2,0.5-3.9,0.5-5c0-0.3-0.1-0.6-0.3-0.7
	c-0.2-0.2-0.4-0.3-0.7-0.3h-4c-0.1,1.9-0.5,3.6-1,4.9c-0.5,1.4-1.3,2.5-2.3,3.3c-1.1,0.9-1.9,1.3-2.4,1.3c-0.5,0-0.8-0.3-0.8-0.9
	c0-0.3,0.2-0.6,0.6-0.8c1.7-0.9,2.9-2.2,3.5-3.8c0.6-1.6,1-4.5,1-8.8h-2.1c-0.3,0-0.5-0.1-0.6-0.2c-0.1-0.1-0.2-0.3-0.2-0.6
	c0-0.3,0.1-0.5,0.2-0.6c0.1-0.1,0.3-0.2,0.6-0.2h3.7v-2.5c0-0.6,0.3-0.9,0.9-0.9c0.6,0,0.8,0.3,0.8,0.9v2.5h4.9
	C43.2,165.2,43.4,165.3,43.6,165.4z"/>
</svg>
